<svg width="304" height="41" viewBox="0 0 304 41" fill="none" xmlns="http://www.w3.org/2000/svg">
<rect width="303.001" height="40.0014" rx="8" fill="url(#paint0_linear_1_78)"/>
<g filter="url(#filter0_d_1_78)">
<path d="M22.1455 22.3059H19.946C19.8179 22.3064 19.6956 22.2648 19.6095 22.1916C19.5234 22.1184 19.4815 22.0203 19.4943 21.9219L19.6885 20.2114C19.7074 20.0295 19.9042 19.8896 20.1402 19.8902H22.3397C22.4678 19.8897 22.5901 19.9312 22.6762 20.0045C22.7623 20.0777 22.8042 20.1757 22.7914 20.2742L22.5972 21.9847C22.5783 22.1665 22.3815 22.3065 22.1455 22.3059ZM22.4981 18.9569H20.2576C20.0101 18.9569 19.8095 18.7903 19.8095 18.5848L20.4189 12.8059C20.4463 12.618 20.6391 12.4771 20.867 12.4784H23.1075C23.3549 12.4784 23.5556 12.645 23.5556 12.8505L22.9282 18.6331C22.8998 18.814 22.7176 18.9511 22.4981 18.9569ZM35.6716 12.2179C35.9101 12.4567 36.0265 12.7676 35.9949 13.0807L35.1192 21.6658C35.0911 21.9467 34.9458 22.2094 34.71 22.4058L27.5489 28.3677C27.2932 28.5798 26.9512 28.698 26.5954 28.6974H18.9719L12.2609 34L12.7806 28.6939H9.36782C8.98452 28.6941 8.61871 28.5564 8.35959 28.3144C8.10048 28.0723 7.97189 27.7481 8.00517 27.4208L10.088 7.05211C10.1595 6.4535 10.7486 5.99868 11.4507 6H28.8297C29.2295 5.9999 29.6093 6.14984 29.8691 6.41032L35.6716 12.2179ZM30.3642 20.0281L30.9207 14.729C30.9423 14.4148 30.8155 14.1064 30.5688 13.8732L27.2952 10.6328C27.0357 10.3768 26.6596 10.2296 26.264 10.2295H15.952C15.2498 10.2281 14.6608 10.683 14.5893 11.2816L13.3617 23.2054C13.3334 23.5317 13.4637 23.8534 13.7218 24.0945C13.9798 24.3356 14.3426 24.4745 14.7243 24.4785H24.8645C25.2163 24.4792 25.5548 24.3636 25.8097 24.1558L29.955 20.7715C30.1917 20.5742 30.3371 20.3101 30.3642 20.0281Z" fill="url(#paint1_linear_1_78)"/>
</g>
<g filter="url(#filter1_d_1_78)">
<path d="M50.103 17.3849C50.0386 16.8134 49.7729 16.3707 49.3061 16.0568C48.8392 15.7389 48.2516 15.5799 47.5433 15.5799C47.0362 15.5799 46.5975 15.6604 46.2273 15.8214C45.857 15.9783 45.5692 16.1957 45.364 16.4734C45.1627 16.747 45.0621 17.0589 45.0621 17.4091C45.0621 17.7029 45.1305 17.9564 45.2674 18.1697C45.4082 18.383 45.5914 18.5621 45.8167 18.707C46.0461 18.8479 46.2916 18.9666 46.5532 19.0632C46.8148 19.1558 47.0664 19.2322 47.3079 19.2926L48.5153 19.6065C48.9097 19.7031 49.3141 19.8339 49.7287 19.9989C50.1432 20.1639 50.5276 20.3813 50.8817 20.6509C51.2359 20.9206 51.5216 21.2546 51.739 21.653C51.9603 22.0515 52.071 22.5284 52.071 23.0838C52.071 23.7841 51.8899 24.4059 51.5277 24.9492C51.1695 25.4925 50.6483 25.9212 49.9641 26.2351C49.284 26.549 48.4609 26.706 47.495 26.706C46.5693 26.706 45.7684 26.5591 45.0923 26.2653C44.4162 25.9715 43.8869 25.5549 43.5046 25.0156C43.1223 24.4723 42.911 23.8283 42.8707 23.0838H44.7422C44.7784 23.5305 44.9233 23.9028 45.1768 24.2006C45.4344 24.4944 45.7624 24.7138 46.1608 24.8587C46.5633 24.9995 47.004 25.0699 47.4829 25.0699C48.0102 25.0699 48.479 24.9874 48.8895 24.8224C49.3041 24.6534 49.6301 24.42 49.8675 24.1221C50.105 23.8203 50.2237 23.4681 50.2237 23.0657C50.2237 22.6994 50.1191 22.3996 49.9098 22.1662C49.7045 21.9328 49.4248 21.7396 49.0706 21.5866C48.7205 21.4337 48.3241 21.2989 47.8814 21.1822L46.4204 20.7837C45.4304 20.5141 44.6456 20.1176 44.066 19.5944C43.4905 19.0712 43.2028 18.379 43.2028 17.5177C43.2028 16.8054 43.3959 16.1836 43.7823 15.6523C44.1687 15.1211 44.6919 14.7086 45.3519 14.4148C46.0119 14.1169 46.7565 13.968 47.5856 13.968C48.4227 13.968 49.1612 14.1149 49.8011 14.4087C50.4451 14.7025 50.9522 15.107 51.3224 15.6221C51.6927 16.1333 51.8859 16.7209 51.902 17.3849H50.103ZM60.0292 22.6552V17.228H61.8403V26.5007H60.0654V24.8949H59.9688C59.7555 25.3899 59.4134 25.8024 58.9425 26.1324C58.4757 26.4584 57.8941 26.6214 57.1979 26.6214C56.6022 26.6214 56.075 26.4906 55.6162 26.229C55.1614 25.9634 54.8032 25.571 54.5416 25.0518C54.284 24.5327 54.1553 23.8907 54.1553 23.1261V17.228H55.9603V22.9087C55.9603 23.5406 56.1354 24.0437 56.4855 24.418C56.8357 24.7922 57.2904 24.9794 57.8499 24.9794C58.1879 24.9794 58.524 24.8949 58.858 24.7258C59.1961 24.5568 59.4758 24.3012 59.6972 23.9591C59.9225 23.6171 60.0332 23.1824 60.0292 22.6552ZM64.2656 29.978V17.228H66.0284V18.7312H66.1793C66.2839 18.538 66.4349 18.3146 66.6321 18.0611C66.8293 17.8075 67.103 17.5862 67.4531 17.397C67.8032 17.2038 68.2661 17.1072 68.8416 17.1072C69.5902 17.1072 70.2583 17.2964 70.8459 17.6747C71.4335 18.053 71.8943 18.5984 72.2283 19.3107C72.5664 20.0231 72.7354 20.8803 72.7354 21.8824C72.7354 22.8846 72.5684 23.7438 72.2343 24.4602C71.9003 25.1726 71.4415 25.7219 70.8579 26.1083C70.2744 26.4906 69.6083 26.6818 68.8597 26.6818C68.2963 26.6818 67.8354 26.5872 67.4772 26.3981C67.1231 26.2089 66.8454 25.9876 66.6442 25.734C66.4429 25.4805 66.288 25.2551 66.1793 25.0579H66.0706V29.978H64.2656ZM66.0344 21.8643C66.0344 22.5163 66.129 23.0878 66.3182 23.5788C66.5073 24.0698 66.781 24.4542 67.1392 24.7319C67.4974 25.0056 67.9361 25.1424 68.4552 25.1424C68.9945 25.1424 69.4453 24.9995 69.8075 24.7138C70.1697 24.424 70.4434 24.0316 70.6285 23.5366C70.8177 23.0415 70.9123 22.4841 70.9123 21.8643C70.9123 21.2526 70.8197 20.7032 70.6346 20.2163C70.4535 19.7293 70.1798 19.3449 69.8135 19.0632C69.4513 18.7815 68.9986 18.6406 68.4552 18.6406C67.932 18.6406 67.4893 18.7754 67.1271 19.0451C66.7689 19.3147 66.4973 19.691 66.3121 20.174C66.127 20.6569 66.0344 21.2204 66.0344 21.8643ZM74.7578 29.978V17.228H76.5206V18.7312H76.6715C76.7761 18.538 76.9271 18.3146 77.1243 18.0611C77.3215 17.8075 77.5951 17.5862 77.9453 17.397C78.2954 17.2038 78.7583 17.1072 79.3338 17.1072C80.0824 17.1072 80.7504 17.2964 81.338 17.6747C81.9256 18.053 82.3865 18.5984 82.7205 19.3107C83.0586 20.0231 83.2276 20.8803 83.2276 21.8824C83.2276 22.8846 83.0606 23.7438 82.7265 24.4602C82.3925 25.1726 81.9337 25.7219 81.3501 26.1083C80.7665 26.4906 80.1005 26.6818 79.3519 26.6818C78.7884 26.6818 78.3276 26.5872 77.9694 26.3981C77.6153 26.2089 77.3376 25.9876 77.1363 25.734C76.9351 25.4805 76.7802 25.2551 76.6715 25.0579H76.5628V29.978H74.7578ZM76.5266 21.8643C76.5266 22.5163 76.6212 23.0878 76.8103 23.5788C76.9995 24.0698 77.2732 24.4542 77.6314 24.7319C77.9896 25.0056 78.4282 25.1424 78.9474 25.1424C79.4867 25.1424 79.9375 24.9995 80.2997 24.7138C80.6619 24.424 80.9356 24.0316 81.1207 23.5366C81.3099 23.0415 81.4044 22.4841 81.4044 21.8643C81.4044 21.2526 81.3119 20.7032 81.1267 20.2163C80.9456 19.7293 80.672 19.3449 80.3057 19.0632C79.9435 18.7815 79.4907 18.6406 78.9474 18.6406C78.4242 18.6406 77.9815 18.7754 77.6193 19.0451C77.2611 19.3147 76.9894 19.691 76.8043 20.174C76.6192 20.6569 76.5266 21.2204 76.5266 21.8643ZM89.1559 26.6878C88.2865 26.6878 87.5279 26.4886 86.8799 26.0902C86.232 25.6917 85.7289 25.1343 85.3707 24.418C85.0125 23.7016 84.8334 22.8645 84.8334 21.9066C84.8334 20.9447 85.0125 20.1036 85.3707 19.3832C85.7289 18.6627 86.232 18.1033 86.8799 17.7049C87.5279 17.3065 88.2865 17.1072 89.1559 17.1072C90.0252 17.1072 90.7838 17.3065 91.4318 17.7049C92.0798 18.1033 92.5828 18.6627 92.941 19.3832C93.2992 20.1036 93.4783 20.9447 93.4783 21.9066C93.4783 22.8645 93.2992 23.7016 92.941 24.418C92.5828 25.1343 92.0798 25.6917 91.4318 26.0902C90.7838 26.4886 90.0252 26.6878 89.1559 26.6878ZM89.1619 25.1726C89.7253 25.1726 90.1922 25.0237 90.5625 24.7258C90.9327 24.428 91.2064 24.0316 91.3835 23.5366C91.5646 23.0415 91.6552 22.4962 91.6552 21.9006C91.6552 21.3089 91.5646 20.7656 91.3835 20.2706C91.2064 19.7715 90.9327 19.3711 90.5625 19.0692C90.1922 18.7674 89.7253 18.6165 89.1619 18.6165C88.5944 18.6165 88.1235 18.7674 87.7493 19.0692C87.379 19.3711 87.1033 19.7715 86.9222 20.2706C86.7451 20.7656 86.6566 21.3089 86.6566 21.9006C86.6566 22.4962 86.7451 23.0415 86.9222 23.5366C87.1033 24.0316 87.379 24.428 87.7493 24.7258C88.1235 25.0237 88.5944 25.1726 89.1619 25.1726ZM95.4931 26.5007V17.228H97.2378V18.701H97.3344C97.5034 18.2019 97.8013 17.8095 98.2279 17.5238C98.6585 17.234 99.1455 17.0891 99.6888 17.0891C99.8015 17.0891 99.9343 17.0931 100.087 17.1012C100.244 17.1092 100.367 17.1193 100.455 17.1314V18.8579C100.383 18.8378 100.254 18.8157 100.069 18.7915C99.884 18.7634 99.6989 18.7493 99.5137 18.7493C99.0871 18.7493 98.7068 18.8398 98.3727 19.0209C98.0427 19.198 97.7811 19.4455 97.5879 19.7635C97.3948 20.0774 97.2982 20.4356 97.2982 20.8381V26.5007H95.4931ZM106.894 17.228V18.6768H101.829V17.228H106.894ZM103.187 15.0064H104.992V23.778C104.992 24.1282 105.045 24.3918 105.149 24.5689C105.254 24.7419 105.389 24.8607 105.554 24.9251C105.723 24.9854 105.906 25.0156 106.103 25.0156C106.248 25.0156 106.375 25.0056 106.483 24.9854C106.592 24.9653 106.677 24.9492 106.737 24.9371L107.063 26.4283C106.958 26.4685 106.809 26.5087 106.616 26.549C106.423 26.5933 106.182 26.6174 105.892 26.6214C105.417 26.6295 104.974 26.545 104.564 26.3679C104.153 26.1908 103.821 25.9171 103.568 25.5469C103.314 25.1766 103.187 24.7118 103.187 24.1523V15.0064ZM113.534 26.5007V14.1371H115.34V18.7312H115.448C115.553 18.538 115.704 18.3146 115.901 18.0611C116.098 17.8075 116.372 17.5862 116.722 17.397C117.072 17.2038 117.535 17.1072 118.11 17.1072C118.859 17.1072 119.527 17.2964 120.115 17.6747C120.702 18.053 121.163 18.5984 121.497 19.3107C121.835 20.0231 122.004 20.8803 122.004 21.8824C122.004 22.8846 121.837 23.7438 121.503 24.4602C121.169 25.1726 120.71 25.7219 120.127 26.1083C119.543 26.4906 118.877 26.6818 118.129 26.6818C117.565 26.6818 117.104 26.5872 116.746 26.3981C116.392 26.2089 116.114 25.9876 115.913 25.734C115.712 25.4805 115.557 25.2551 115.448 25.0579H115.297V26.5007H113.534ZM115.303 21.8643C115.303 22.5163 115.398 23.0878 115.587 23.5788C115.776 24.0698 116.05 24.4542 116.408 24.7319C116.766 25.0056 117.205 25.1424 117.724 25.1424C118.263 25.1424 118.714 24.9995 119.076 24.7138C119.439 24.424 119.712 24.0316 119.897 23.5366C120.087 23.0415 120.181 22.4841 120.181 21.8643C120.181 21.2526 120.089 20.7032 119.903 20.2163C119.722 19.7293 119.449 19.3449 119.082 19.0632C118.72 18.7815 118.267 18.6406 117.724 18.6406C117.201 18.6406 116.758 18.7754 116.396 19.0451C116.038 19.3147 115.766 19.691 115.581 20.174C115.396 20.6569 115.303 21.2204 115.303 21.8643ZM124.857 29.978C124.587 29.978 124.342 29.9558 124.12 29.9116C123.899 29.8713 123.734 29.827 123.625 29.7787L124.06 28.2997C124.39 28.3882 124.684 28.4265 124.941 28.4144C125.199 28.4023 125.426 28.3057 125.623 28.1246C125.825 27.9435 126.002 27.6477 126.155 27.2372L126.378 26.6214L122.985 17.228H124.917L127.265 24.424H127.362L129.71 17.228H131.648L127.827 27.7383C127.65 28.2212 127.424 28.6297 127.151 28.9638C126.877 29.3018 126.551 29.5554 126.173 29.7244C125.794 29.8935 125.356 29.978 124.857 29.978ZM137.844 26.5007V17.228H139.576V18.7372H139.691C139.884 18.2261 140.2 17.8276 140.639 17.5419C141.077 17.2521 141.603 17.1072 142.214 17.1072C142.834 17.1072 143.353 17.2521 143.772 17.5419C144.195 17.8317 144.506 18.2301 144.708 18.7372H144.804C145.026 18.2422 145.378 17.8478 145.861 17.554C146.344 17.2561 146.919 17.1072 147.587 17.1072C148.428 17.1072 149.115 17.3708 149.646 17.8981C150.181 18.4253 150.449 19.2202 150.449 20.2827V26.5007H148.644V20.4517C148.644 19.8239 148.473 19.3691 148.131 19.0873C147.789 18.8056 147.38 18.6648 146.905 18.6648C146.318 18.6648 145.861 18.8459 145.535 19.2081C145.209 19.5663 145.046 20.0271 145.046 20.5905V26.5007H143.247V20.337C143.247 19.8339 143.09 19.4294 142.776 19.1236C142.462 18.8177 142.053 18.6648 141.55 18.6648C141.208 18.6648 140.892 18.7553 140.603 18.9364C140.317 19.1135 140.085 19.361 139.908 19.679C139.735 19.9969 139.649 20.3652 139.649 20.7837V26.5007H137.844ZM156.865 26.6878C155.951 26.6878 155.164 26.4926 154.504 26.1023C153.848 25.7078 153.341 25.1545 152.983 24.4421C152.629 23.7257 152.452 22.8866 152.452 21.9247C152.452 20.9749 152.629 20.1378 152.983 19.4133C153.341 18.6889 153.84 18.1234 154.48 17.717C155.124 17.3105 155.877 17.1072 156.738 17.1072C157.261 17.1072 157.768 17.1938 158.259 17.3668C158.75 17.5399 159.191 17.8115 159.581 18.1818C159.972 18.5521 160.279 19.033 160.505 19.6246C160.73 20.2122 160.843 20.9266 160.843 21.7677V22.4077H153.472V21.0554H159.074C159.074 20.5805 158.977 20.1599 158.784 19.7937C158.591 19.4234 158.319 19.1316 157.969 18.9183C157.623 18.705 157.217 18.5984 156.75 18.5984C156.243 18.5984 155.8 18.7231 155.422 18.9726C155.047 19.2181 154.758 19.5401 154.552 19.9386C154.351 20.333 154.251 20.7616 154.251 21.2244V22.2809C154.251 22.9007 154.359 23.4279 154.577 23.8626C154.798 24.2972 155.106 24.6292 155.5 24.8587C155.895 25.084 156.355 25.1967 156.883 25.1967C157.225 25.1967 157.537 25.1484 157.818 25.0518C158.1 24.9512 158.344 24.8023 158.549 24.6051C158.754 24.4079 158.911 24.1644 159.02 23.8746L160.728 24.1825C160.591 24.6856 160.346 25.1263 159.992 25.5046C159.642 25.8789 159.201 26.1707 158.67 26.38C158.142 26.5852 157.541 26.6878 156.865 26.6878Z" fill="#E8E8E8"/>
<path d="M171.507 26.5007H166.937V14.1371H171.501C172.761 14.1371 173.845 14.3846 174.755 14.8796C175.668 15.3706 176.373 16.0789 176.868 17.0046C177.363 17.9262 177.61 19.029 177.61 20.3128C177.61 21.6007 177.363 22.7075 176.868 23.6332C176.377 24.5588 175.675 25.2692 174.761 25.7642C173.847 26.2552 172.763 26.5007 171.507 26.5007ZM169.925 23.9531H171.392C172.085 23.9531 172.67 23.8364 173.149 23.603C173.632 23.3655 173.996 22.9812 174.242 22.4499C174.491 21.9146 174.616 21.2023 174.616 20.3128C174.616 19.4234 174.491 18.7151 174.242 18.1878C173.992 17.6566 173.624 17.2743 173.137 17.0408C172.654 16.8034 172.058 16.6846 171.35 16.6846H169.925V23.9531ZM183.684 26.6758C182.71 26.6758 181.872 26.4765 181.172 26.0781C180.476 25.6756 179.939 25.1162 179.56 24.3998C179.186 23.6794 178.999 22.8443 178.999 21.8945C178.999 20.9407 179.186 20.1056 179.56 19.3892C179.939 18.6688 180.476 18.1094 181.172 17.7109C181.872 17.3085 182.71 17.1072 183.684 17.1072C184.657 17.1072 185.493 17.3085 186.189 17.7109C186.889 18.1094 187.426 18.6688 187.801 19.3892C188.179 20.1056 188.368 20.9407 188.368 21.8945C188.368 22.8443 188.179 23.6794 187.801 24.3998C187.426 25.1162 186.889 25.6756 186.189 26.0781C185.493 26.4765 184.657 26.6758 183.684 26.6758ZM183.702 24.4481C184.056 24.4481 184.356 24.3395 184.601 24.1221C184.847 23.9048 185.034 23.603 185.163 23.2166C185.295 22.8302 185.362 22.3835 185.362 21.8764C185.362 21.3613 185.295 20.9105 185.163 20.5241C185.034 20.1378 184.847 19.8359 184.601 19.6186C184.356 19.4013 184.056 19.2926 183.702 19.2926C183.335 19.2926 183.025 19.4013 182.772 19.6186C182.522 19.8359 182.331 20.1378 182.198 20.5241C182.07 20.9105 182.005 21.3613 182.005 21.8764C182.005 22.3835 182.07 22.8302 182.198 23.2166C182.331 23.603 182.522 23.9048 182.772 24.1221C183.025 24.3395 183.335 24.4481 183.702 24.4481ZM192.832 21.2123V26.5007H189.88V17.228H192.688V18.9304H192.79C192.995 18.3629 193.346 17.9182 193.841 17.5962C194.336 17.2702 194.925 17.1072 195.609 17.1072C196.261 17.1072 196.827 17.2541 197.306 17.5479C197.789 17.8377 198.163 18.2442 198.429 18.7674C198.698 19.2866 198.831 19.8943 198.827 20.5905V26.5007H195.875V21.1701C195.879 20.6549 195.748 20.2525 195.483 19.9627C195.221 19.6729 194.857 19.528 194.39 19.528C194.08 19.528 193.806 19.5965 193.569 19.7333C193.336 19.8661 193.154 20.0573 193.026 20.3068C192.901 20.5563 192.837 20.8582 192.832 21.2123ZM203.269 26.6577C202.677 26.6577 202.152 26.5591 201.693 26.3618C201.238 26.1606 200.878 25.8588 200.613 25.4563C200.351 25.0498 200.22 24.5407 200.22 23.929C200.22 23.4138 200.311 22.9792 200.492 22.625C200.673 22.2708 200.922 21.9831 201.24 21.7617C201.558 21.5404 201.925 21.3733 202.339 21.2606C202.754 21.1439 203.196 21.0654 203.667 21.0252C204.194 20.9769 204.619 20.9266 204.941 20.8743C205.263 20.8179 205.496 20.7395 205.641 20.6388C205.79 20.5342 205.865 20.3873 205.865 20.1981V20.168C205.865 19.8581 205.758 19.6186 205.545 19.4496C205.331 19.2805 205.044 19.196 204.681 19.196C204.291 19.196 203.977 19.2805 203.74 19.4496C203.502 19.6186 203.351 19.852 203.287 20.1498L200.564 20.0533C200.645 19.4898 200.852 18.9867 201.186 18.544C201.524 18.0973 201.987 17.7471 202.575 17.4936C203.166 17.236 203.877 17.1072 204.706 17.1072C205.297 17.1072 205.843 17.1777 206.342 17.3185C206.841 17.4554 207.275 17.6566 207.646 17.9222C208.016 18.1838 208.302 18.5058 208.503 18.8881C208.708 19.2705 208.811 19.7071 208.811 20.1981V26.5007H206.034V25.2088H205.961C205.796 25.5227 205.585 25.7883 205.327 26.0057C205.074 26.223 204.774 26.386 204.428 26.4947C204.086 26.6033 203.699 26.6577 203.269 26.6577ZM204.18 24.7258C204.498 24.7258 204.784 24.6614 205.038 24.5327C205.295 24.4039 205.5 24.2268 205.653 24.0014C205.806 23.772 205.883 23.5064 205.883 23.2045V22.3231C205.798 22.3674 205.696 22.4077 205.575 22.4439C205.458 22.4801 205.329 22.5143 205.189 22.5465C205.048 22.5787 204.903 22.6069 204.754 22.631C204.605 22.6552 204.462 22.6773 204.325 22.6974C204.048 22.7417 203.81 22.8101 203.613 22.9027C203.42 22.9953 203.271 23.116 203.166 23.2649C203.066 23.4098 203.015 23.5828 203.015 23.7841C203.015 24.0899 203.124 24.3234 203.341 24.4844C203.563 24.6453 203.842 24.7258 204.18 24.7258ZM215.85 17.228V19.4013H210V17.228H215.85ZM211.225 15.0064H214.178V23.5849C214.178 23.766 214.206 23.9129 214.262 24.0256C214.322 24.1342 214.409 24.2127 214.522 24.261C214.634 24.3053 214.769 24.3274 214.926 24.3274C215.039 24.3274 215.158 24.3173 215.282 24.2972C215.411 24.2731 215.508 24.2529 215.572 24.2368L216.019 26.3679C215.878 26.4081 215.679 26.4584 215.421 26.5188C215.168 26.5792 214.864 26.6174 214.51 26.6335C213.817 26.6657 213.224 26.5852 212.729 26.392C212.238 26.1948 211.861 25.889 211.6 25.4744C211.342 25.0599 211.217 24.5387 211.225 23.9109V15.0064ZM217.356 26.5007V17.228H220.308V26.5007H217.356ZM218.835 16.1474C218.421 16.1474 218.064 16.0105 217.767 15.7369C217.469 15.4592 217.32 15.1251 217.32 14.7347C217.32 14.3484 217.469 14.0183 217.767 13.7447C218.064 13.467 218.421 13.3281 218.835 13.3281C219.254 13.3281 219.61 13.467 219.904 13.7447C220.201 14.0183 220.35 14.3484 220.35 14.7347C220.35 15.1251 220.201 15.4592 219.904 15.7369C219.61 16.0105 219.254 16.1474 218.835 16.1474ZM226.516 26.6758C225.542 26.6758 224.704 26.4765 224.004 26.0781C223.308 25.6756 222.771 25.1162 222.392 24.3998C222.018 23.6794 221.831 22.8443 221.831 21.8945C221.831 20.9407 222.018 20.1056 222.392 19.3892C222.771 18.6688 223.308 18.1094 224.004 17.7109C224.704 17.3085 225.542 17.1072 226.516 17.1072C227.489 17.1072 228.325 17.3085 229.021 17.7109C229.721 18.1094 230.258 18.6688 230.633 19.3892C231.011 20.1056 231.2 20.9407 231.2 21.8945C231.2 22.8443 231.011 23.6794 230.633 24.3998C230.258 25.1162 229.721 25.6756 229.021 26.0781C228.325 26.4765 227.489 26.6758 226.516 26.6758ZM226.534 24.4481C226.888 24.4481 227.188 24.3395 227.433 24.1221C227.679 23.9048 227.866 23.603 227.995 23.2166C228.127 22.8302 228.194 22.3835 228.194 21.8764C228.194 21.3613 228.127 20.9105 227.995 20.5241C227.866 20.1378 227.679 19.8359 227.433 19.6186C227.188 19.4013 226.888 19.2926 226.534 19.2926C226.167 19.2926 225.858 19.4013 225.604 19.6186C225.354 19.8359 225.163 20.1378 225.03 20.5241C224.902 20.9105 224.837 21.3613 224.837 21.8764C224.837 22.3835 224.902 22.8302 225.03 23.2166C225.163 23.603 225.354 23.9048 225.604 24.1221C225.858 24.3395 226.167 24.4481 226.534 24.4481ZM235.664 21.2123V26.5007H232.712V17.228H235.52V18.9304H235.622C235.827 18.3629 236.178 17.9182 236.673 17.5962C237.168 17.2702 237.757 17.1072 238.441 17.1072C239.093 17.1072 239.659 17.2541 240.138 17.5479C240.621 17.8377 240.995 18.2442 241.261 18.7674C241.53 19.2866 241.663 19.8943 241.659 20.5905V26.5007H238.707V21.1701C238.711 20.6549 238.58 20.2525 238.315 19.9627C238.053 19.6729 237.689 19.528 237.222 19.528C236.912 19.528 236.638 19.5965 236.401 19.7333C236.168 19.8661 235.986 20.0573 235.858 20.3068C235.733 20.5563 235.669 20.8582 235.664 21.2123ZM246.161 26.5007H242.95L247.121 14.1371H251.099L255.271 26.5007H252.059L249.156 17.2521H249.059L246.161 26.5007ZM245.733 21.6349H252.446V23.9048H245.733V21.6349ZM259.554 14.1371V26.5007H256.602V14.1371H259.554ZM265.768 26.6758C264.798 26.6758 263.961 26.4846 263.256 26.1023C262.556 25.7159 262.017 25.1665 261.638 24.4542C261.264 23.7378 261.077 22.8866 261.077 21.9006C261.077 20.9427 261.266 20.1056 261.644 19.3892C262.023 18.6688 262.556 18.1094 263.244 17.7109C263.932 17.3085 264.743 17.1072 265.677 17.1072C266.337 17.1072 266.941 17.2099 267.488 17.4151C268.036 17.6204 268.508 17.9242 268.907 18.3267C269.305 18.7292 269.615 19.2262 269.837 19.8178C270.058 20.4054 270.169 21.0795 270.169 21.8402V22.5767H262.109V20.8622H267.422C267.418 20.5483 267.343 20.2686 267.198 20.0231C267.054 19.7776 266.854 19.5864 266.601 19.4496C266.351 19.3087 266.063 19.2383 265.737 19.2383C265.407 19.2383 265.112 19.3127 264.85 19.4616C264.588 19.6065 264.381 19.8057 264.228 20.0593C264.075 20.3088 263.995 20.5926 263.987 20.9105V22.6552C263.987 23.0335 264.061 23.3655 264.21 23.6513C264.359 23.933 264.57 24.1523 264.844 24.3093C265.118 24.4663 265.444 24.5447 265.822 24.5447C266.084 24.5447 266.321 24.5085 266.534 24.4361C266.748 24.3636 266.931 24.257 267.084 24.1161C267.237 23.9752 267.351 23.8022 267.428 23.5969L270.138 23.6754C270.026 24.2831 269.778 24.8124 269.396 25.2631C269.018 25.7099 268.52 26.058 267.905 26.3075C267.289 26.553 266.577 26.6758 265.768 26.6758ZM271.676 26.5007V17.228H274.544V18.9183H274.64C274.809 18.3066 275.085 17.8518 275.467 17.554C275.85 17.2521 276.295 17.1012 276.802 17.1012C276.938 17.1012 277.079 17.1113 277.224 17.1314C277.369 17.1475 277.504 17.1736 277.629 17.2099V19.7756C277.488 19.7273 277.303 19.689 277.073 19.6609C276.848 19.6327 276.647 19.6186 276.47 19.6186C276.119 19.6186 275.804 19.6971 275.522 19.854C275.244 20.007 275.025 20.2223 274.864 20.5C274.707 20.7737 274.628 21.0956 274.628 21.4659V26.5007H271.676ZM284.497 17.228V19.4013H278.647V17.228H284.497ZM279.873 15.0064H282.825V23.5849C282.825 23.766 282.853 23.9129 282.91 24.0256C282.97 24.1342 283.056 24.2127 283.169 24.261C283.282 24.3053 283.417 24.3274 283.574 24.3274C283.686 24.3274 283.805 24.3173 283.93 24.2972C284.059 24.2731 284.155 24.2529 284.22 24.2368L284.666 26.3679C284.525 26.4081 284.326 26.4584 284.069 26.5188C283.815 26.5792 283.511 26.6174 283.157 26.6335C282.465 26.6657 281.871 26.5852 281.376 26.392C280.885 26.1948 280.509 25.889 280.247 25.4744C279.99 25.0599 279.865 24.5387 279.873 23.9109V15.0064ZM293.983 20.0593L291.272 20.1317C291.244 19.9386 291.168 19.7675 291.043 19.6186C290.918 19.4657 290.755 19.3469 290.554 19.2624C290.357 19.1739 290.127 19.1296 289.866 19.1296C289.523 19.1296 289.232 19.198 288.99 19.3349C288.753 19.4717 288.636 19.6568 288.64 19.8903C288.636 20.0714 288.708 20.2283 288.857 20.3611C289.01 20.494 289.282 20.6006 289.672 20.6811L291.459 21.0192C292.385 21.1962 293.073 21.49 293.524 21.9006C293.979 22.3111 294.208 22.8544 294.212 23.5305C294.208 24.1664 294.019 24.7198 293.645 25.1907C293.274 25.6616 292.767 26.0278 292.123 26.2894C291.479 26.547 290.743 26.6758 289.914 26.6758C288.59 26.6758 287.545 26.4041 286.781 25.8608C286.02 25.3134 285.585 24.581 285.477 23.6633L288.393 23.5909C288.457 23.929 288.624 24.1865 288.894 24.3636C289.163 24.5407 289.507 24.6292 289.926 24.6292C290.304 24.6292 290.612 24.5588 290.85 24.418C291.087 24.2771 291.208 24.0899 291.212 23.8565C291.208 23.6472 291.115 23.4802 290.934 23.3555C290.753 23.2267 290.469 23.1261 290.083 23.0536L288.465 22.7457C287.535 22.5767 286.843 22.2648 286.388 21.81C285.934 21.3512 285.708 20.7676 285.712 20.0593C285.708 19.4395 285.873 18.9103 286.207 18.4716C286.541 18.0289 287.016 17.6908 287.632 17.4574C288.248 17.2239 288.974 17.1072 289.811 17.1072C291.067 17.1072 292.057 17.3708 292.781 17.8981C293.506 18.4213 293.906 19.1417 293.983 20.0593Z" fill="#E88307"/>
</g>
<rect x="1.07143" y="1.07143" width="300.858" height="37.8585" rx="6.92857" stroke="white" stroke-opacity="0.15" stroke-width="2.14286"/>
<defs>
<filter id="filter0_d_1_78" x="2.39972" y="0.39972" width="39.202" height="39.202" filterUnits="userSpaceOnUse" color-interpolation-filters="sRGB">
<feFlood flood-opacity="0" result="BackgroundImageFix"/>
<feColorMatrix in="SourceAlpha" type="matrix" values="0 0 0 0 0 0 0 0 0 0 0 0 0 0 0 0 0 0 127 0" result="hardAlpha"/>
<feOffset/>
<feGaussianBlur stdDeviation="2.80014"/>
<feComposite in2="hardAlpha" operator="out"/>
<feColorMatrix type="matrix" values="0 0 0 0 0 0 0 0 0 0 0 0 0 0 0 0 0 0 0.25 0"/>
<feBlend mode="normal" in2="BackgroundImageFix" result="effect1_dropShadow_1_78"/>
<feBlend mode="normal" in="SourceGraphic" in2="effect1_dropShadow_1_78" result="shape"/>
</filter>
<filter id="filter1_d_1_78" x="36.2871" y="3.78642" width="264.429" height="32.4286" filterUnits="userSpaceOnUse" color-interpolation-filters="sRGB">
<feFlood flood-opacity="0" result="BackgroundImageFix"/>
<feColorMatrix in="SourceAlpha" type="matrix" values="0 0 0 0 0 0 0 0 0 0 0 0 0 0 0 0 0 0 127 0" result="hardAlpha"/>
<feOffset/>
<feGaussianBlur stdDeviation="2.85714"/>
<feComposite in2="hardAlpha" operator="out"/>
<feColorMatrix type="matrix" values="0 0 0 0 0 0 0 0 0 0 0 0 0 0 0 0 0 0 0.25 0"/>
<feBlend mode="normal" in2="BackgroundImageFix" result="effect1_dropShadow_1_78"/>
<feBlend mode="normal" in="SourceGraphic" in2="effect1_dropShadow_1_78" result="shape"/>
</filter>
<linearGradient id="paint0_linear_1_78" x1="151.501" y1="0" x2="151.501" y2="40.0014" gradientUnits="userSpaceOnUse">
<stop stop-color="#AB7307"/>
<stop offset="1" stop-color="#200908"/>
</linearGradient>
<linearGradient id="paint1_linear_1_78" x1="2449.47" y1="6.00001" x2="366.531" y2="2806" gradientUnits="userSpaceOnUse">
<stop stop-color="#F59C07"/>
<stop offset="1" stop-color="#F57507"/>
</linearGradient>
</defs>
</svg>
