<svg width="234" height="41" viewBox="0 0 234 41" fill="none" xmlns="http://www.w3.org/2000/svg">
<rect width="234" height="41" rx="8" fill="url(#paint0_linear_1_84)"/>
<g clip-path="url(#clip0_1_84)">
<g filter="url(#filter0_d_1_84)">
<path d="M13.617 23.205L17.6297 12H23.7965L22.5533 15.4736C22.541 15.4935 22.5287 15.5133 22.5164 15.5332L19.2422 24.7036H22.2948C21.0147 27.2741 20.0177 29.2888 19.3038 30.7478C13.6662 30.6981 12.0907 27.4428 13.4693 23.5921M19.3284 30.7577L26.763 22.1331H23.6119L26.3568 16.6051C31.0588 17.0021 33.2745 19.9894 31.9697 23.602C30.5788 27.4825 24.9413 30.7577 19.4515 30.7577C19.4022 30.7577 19.3653 30.7577 19.3284 30.7577Z" fill="url(#paint1_linear_1_84)"/>
</g>
</g>
<g filter="url(#filter1_d_1_84)">
<path d="M51.1016 17.8842C51.0372 17.3127 50.7715 16.87 50.3047 16.5561C49.8378 16.2382 49.2502 16.0792 48.5419 16.0792C48.0348 16.0792 47.5961 16.1597 47.2259 16.3207C46.8556 16.4776 46.5678 16.695 46.3626 16.9727C46.1613 17.2463 46.0607 17.5582 46.0607 17.9084C46.0607 18.2022 46.1291 18.4557 46.266 18.669C46.4068 18.8823 46.59 19.0614 46.8153 19.2063C47.0447 19.3472 47.2902 19.4659 47.5518 19.5625C47.8134 19.6551 48.065 19.7315 48.3065 19.7919L49.5138 20.1058C49.9083 20.2024 50.3127 20.3332 50.7273 20.4982C51.1418 20.6632 51.5262 20.8806 51.8803 21.1502C52.2345 21.4199 52.5202 21.7539 52.7376 22.1523C52.9589 22.5508 53.0696 23.0277 53.0696 23.5831C53.0696 24.2834 52.8885 24.9052 52.5263 25.4485C52.1681 25.9918 51.6469 26.4204 50.9627 26.7344C50.2826 27.0483 49.4595 27.2053 48.4936 27.2053C47.5679 27.2053 46.767 27.0584 46.0909 26.7646C45.4148 26.4708 44.8855 26.0542 44.5032 25.5149C44.1209 24.9716 43.9096 24.3276 43.8693 23.5831H45.7408C45.777 24.0298 45.9219 24.4021 46.1754 24.6999C46.433 24.9937 46.761 25.2131 47.1594 25.3579C47.5619 25.4988 48.0026 25.5692 48.4815 25.5692C49.0088 25.5692 49.4776 25.4867 49.8881 25.3217C50.3027 25.1527 50.6287 24.9193 50.8661 24.6214C51.1036 24.3196 51.2223 23.9674 51.2223 23.565C51.2223 23.1987 51.1177 22.8989 50.9084 22.6655C50.7031 22.4321 50.4234 22.2389 50.0692 22.0859C49.7191 21.933 49.3227 21.7982 48.88 21.6815L47.419 21.283C46.429 21.0134 45.6442 20.6169 45.0646 20.0937C44.4891 19.5705 44.2013 18.8783 44.2013 18.017C44.2013 17.3047 44.3945 16.6829 44.7809 16.1516C45.1673 15.6204 45.6905 15.2079 46.3505 14.9141C47.0105 14.6162 47.7551 14.4673 48.5842 14.4673C49.4213 14.4673 50.1598 14.6142 50.7997 14.908C51.4437 15.2018 51.9508 15.6063 52.321 16.1214C52.6913 16.6326 52.8845 17.2202 52.9006 17.8842H51.1016ZM61.0278 23.1545V17.7273H62.8389V27H61.064V25.3942H60.9674C60.7541 25.8892 60.412 26.3017 59.9411 26.6317C59.4743 26.9577 58.8927 27.1207 58.1965 27.1207C57.6008 27.1207 57.0736 26.9899 56.6148 26.7283C56.16 26.4627 55.8018 26.0703 55.5402 25.5511C55.2826 25.032 55.1538 24.39 55.1538 23.6254V17.7273H56.9589V23.408C56.9589 24.0399 57.134 24.543 57.4841 24.9173C57.8342 25.2915 58.289 25.4787 58.8485 25.4787C59.1865 25.4787 59.5226 25.3942 59.8566 25.2251C60.1947 25.0561 60.4744 24.8005 60.6958 24.4584C60.9211 24.1164 61.0318 23.6817 61.0278 23.1545ZM65.2642 30.4773V17.7273H67.027V19.2305H67.1779C67.2825 19.0373 67.4335 18.8139 67.6307 18.5604C67.8279 18.3068 68.1016 18.0855 68.4517 17.8963C68.8018 17.7031 69.2647 17.6065 69.8402 17.6065C70.5888 17.6065 71.2569 17.7957 71.8445 18.174C72.432 18.5523 72.8929 19.0977 73.2269 19.81C73.565 20.5224 73.734 21.3796 73.734 22.3817C73.734 23.3839 73.567 24.2431 73.2329 24.9595C72.8989 25.6719 72.4401 26.2212 71.8565 26.6076C71.273 26.9899 70.6069 27.1811 69.8583 27.1811C69.2949 27.1811 68.834 27.0865 68.4758 26.8974C68.1217 26.7082 67.844 26.4869 67.6427 26.2333C67.4415 25.9798 67.2866 25.7544 67.1779 25.5572H67.0692V30.4773H65.2642ZM67.033 22.3636C67.033 23.0156 67.1276 23.5871 67.3168 24.0781C67.5059 24.5691 67.7796 24.9535 68.1378 25.2312C68.496 25.5048 68.9347 25.6417 69.4538 25.6417C69.9931 25.6417 70.4439 25.4988 70.8061 25.2131C71.1683 24.9233 71.442 24.5309 71.6271 24.0359C71.8163 23.5408 71.9109 22.9834 71.9109 22.3636C71.9109 21.7519 71.8183 21.2025 71.6332 20.7156C71.4521 20.2286 71.1784 19.8442 70.8121 19.5625C70.4499 19.2808 69.9972 19.1399 69.4538 19.1399C68.9306 19.1399 68.4879 19.2747 68.1257 19.5444C67.7675 19.814 67.4958 20.1903 67.3107 20.6733C67.1256 21.1562 67.033 21.7197 67.033 22.3636ZM75.7564 30.4773V17.7273H77.5192V19.2305H77.6701C77.7747 19.0373 77.9257 18.8139 78.1229 18.5604C78.3201 18.3068 78.5937 18.0855 78.9439 17.8963C79.294 17.7031 79.7569 17.6065 80.3324 17.6065C81.081 17.6065 81.749 17.7957 82.3366 18.174C82.9242 18.5523 83.385 19.0977 83.7191 19.81C84.0572 20.5224 84.2262 21.3796 84.2262 22.3817C84.2262 23.3839 84.0592 24.2431 83.7251 24.9595C83.3911 25.6719 82.9323 26.2212 82.3487 26.6076C81.7651 26.9899 81.0991 27.1811 80.3505 27.1811C79.787 27.1811 79.3262 27.0865 78.968 26.8974C78.6139 26.7082 78.3362 26.4869 78.1349 26.2333C77.9337 25.9798 77.7788 25.7544 77.6701 25.5572H77.5614V30.4773H75.7564ZM77.5252 22.3636C77.5252 23.0156 77.6198 23.5871 77.8089 24.0781C77.9981 24.5691 78.2718 24.9535 78.63 25.2312C78.9882 25.5048 79.4268 25.6417 79.946 25.6417C80.4853 25.6417 80.9361 25.4988 81.2983 25.2131C81.6605 24.9233 81.9342 24.5309 82.1193 24.0359C82.3085 23.5408 82.403 22.9834 82.403 22.3636C82.403 21.7519 82.3105 21.2025 82.1253 20.7156C81.9442 20.2286 81.6706 19.8442 81.3043 19.5625C80.9421 19.2808 80.4893 19.1399 79.946 19.1399C79.4228 19.1399 78.9801 19.2747 78.6179 19.5444C78.2597 19.814 77.988 20.1903 77.8029 20.6733C77.6178 21.1562 77.5252 21.7197 77.5252 22.3636ZM90.1545 27.1871C89.2851 27.1871 88.5265 26.9879 87.8785 26.5895C87.2306 26.191 86.7275 25.6336 86.3693 24.9173C86.0111 24.2009 85.832 23.3638 85.832 22.4059C85.832 21.444 86.0111 20.6029 86.3693 19.8825C86.7275 19.162 87.2306 18.6026 87.8785 18.2042C88.5265 17.8058 89.2851 17.6065 90.1545 17.6065C91.0238 17.6065 91.7824 17.8058 92.4304 18.2042C93.0783 18.6026 93.5814 19.162 93.9396 19.8825C94.2978 20.6029 94.4769 21.444 94.4769 22.4059C94.4769 23.3638 94.2978 24.2009 93.9396 24.9173C93.5814 25.6336 93.0783 26.191 92.4304 26.5895C91.7824 26.9879 91.0238 27.1871 90.1545 27.1871ZM90.1605 25.6719C90.7239 25.6719 91.1908 25.523 91.5611 25.2251C91.9313 24.9273 92.205 24.5309 92.3821 24.0359C92.5632 23.5408 92.6537 22.9955 92.6537 22.3999C92.6537 21.8082 92.5632 21.2649 92.3821 20.7699C92.205 20.2708 91.9313 19.8704 91.5611 19.5685C91.1908 19.2667 90.7239 19.1158 90.1605 19.1158C89.593 19.1158 89.1221 19.2667 88.7479 19.5685C88.3776 19.8704 88.1019 20.2708 87.9208 20.7699C87.7437 21.2649 87.6552 21.8082 87.6552 22.3999C87.6552 22.9955 87.7437 23.5408 87.9208 24.0359C88.1019 24.5309 88.3776 24.9273 88.7479 25.2251C89.1221 25.523 89.593 25.6719 90.1605 25.6719ZM96.4917 27V17.7273H98.2364V19.2003H98.333C98.502 18.7012 98.7998 18.3088 99.2265 18.0231C99.6571 17.7333 100.144 17.5884 100.687 17.5884C100.8 17.5884 100.933 17.5924 101.086 17.6005C101.243 17.6085 101.366 17.6186 101.454 17.6307V19.3572C101.382 19.3371 101.253 19.315 101.068 19.2908C100.883 19.2627 100.697 19.2486 100.512 19.2486C100.086 19.2486 99.7054 19.3391 99.3713 19.5202C99.0413 19.6973 98.7797 19.9448 98.5865 20.2628C98.3934 20.5767 98.2968 20.9349 98.2968 21.3374V27H96.4917ZM107.892 17.7273V19.1761H102.827V17.7273H107.892ZM104.186 15.5057H105.991V24.2773C105.991 24.6275 106.043 24.8911 106.148 25.0682C106.252 25.2412 106.387 25.36 106.552 25.4244C106.721 25.4847 106.904 25.5149 107.102 25.5149C107.247 25.5149 107.373 25.5048 107.482 25.4847C107.591 25.4646 107.675 25.4485 107.736 25.4364L108.062 26.9276C107.957 26.9678 107.808 27.008 107.615 27.0483C107.422 27.0926 107.18 27.1167 106.89 27.1207C106.415 27.1288 105.973 27.0443 105.562 26.8672C105.152 26.6901 104.82 26.4164 104.566 26.0462C104.313 25.6759 104.186 25.2111 104.186 24.6516V15.5057ZM114.533 27V14.6364H116.338V19.2305H116.447C116.551 19.0373 116.702 18.8139 116.9 18.5604C117.097 18.3068 117.37 18.0855 117.721 17.8963C118.071 17.7031 118.534 17.6065 119.109 17.6065C119.858 17.6065 120.526 17.7957 121.113 18.174C121.701 18.5523 122.162 19.0977 122.496 19.81C122.834 20.5224 123.003 21.3796 123.003 22.3817C123.003 23.3839 122.836 24.2431 122.502 24.9595C122.168 25.6719 121.709 26.2212 121.125 26.6076C120.542 26.9899 119.876 27.1811 119.127 27.1811C118.564 27.1811 118.103 27.0865 117.745 26.8974C117.391 26.7082 117.113 26.4869 116.912 26.2333C116.71 25.9798 116.555 25.7544 116.447 25.5572H116.296V27H114.533ZM116.302 22.3636C116.302 23.0156 116.396 23.5871 116.586 24.0781C116.775 24.5691 117.048 24.9535 117.407 25.2312C117.765 25.5048 118.204 25.6417 118.723 25.6417C119.262 25.6417 119.713 25.4988 120.075 25.2131C120.437 24.9233 120.711 24.5309 120.896 24.0359C121.085 23.5408 121.18 22.9834 121.18 22.3636C121.18 21.7519 121.087 21.2025 120.902 20.7156C120.721 20.2286 120.447 19.8442 120.081 19.5625C119.719 19.2808 119.266 19.1399 118.723 19.1399C118.2 19.1399 117.757 19.2747 117.395 19.5444C117.036 19.814 116.765 20.1903 116.58 20.6733C116.394 21.1562 116.302 21.7197 116.302 22.3636ZM125.855 30.4773C125.586 30.4773 125.34 30.4551 125.119 30.4109C124.897 30.3706 124.732 30.3263 124.624 30.278L125.058 28.799C125.388 28.8875 125.682 28.9258 125.94 28.9137C126.197 28.9016 126.425 28.805 126.622 28.6239C126.823 28.4428 127 28.147 127.153 27.7365L127.377 27.1207L123.984 17.7273H125.916L128.264 24.9233H128.361L130.709 17.7273H132.647L128.826 28.2376C128.648 28.7205 128.423 29.129 128.149 29.4631C127.876 29.8011 127.55 30.0547 127.171 30.2237C126.793 30.3927 126.354 30.4773 125.855 30.4773ZM138.842 27V17.7273H140.575V19.2365H140.69C140.883 18.7254 141.199 18.3269 141.637 18.0412C142.076 17.7514 142.601 17.6065 143.213 17.6065C143.833 17.6065 144.352 17.7514 144.771 18.0412C145.193 18.331 145.505 18.7294 145.706 19.2365H145.803C146.024 18.7415 146.376 18.3471 146.859 18.0533C147.342 17.7554 147.918 17.6065 148.586 17.6065C149.427 17.6065 150.113 17.8701 150.644 18.3974C151.18 18.9246 151.447 19.7195 151.447 20.782V27H149.642V20.951C149.642 20.3232 149.471 19.8684 149.129 19.5866C148.787 19.3049 148.379 19.1641 147.904 19.1641C147.316 19.1641 146.859 19.3452 146.533 19.7074C146.207 20.0656 146.044 20.5264 146.044 21.0898V27H144.245V20.8363C144.245 20.3332 144.088 19.9287 143.774 19.6229C143.461 19.317 143.052 19.1641 142.549 19.1641C142.207 19.1641 141.891 19.2546 141.601 19.4357C141.315 19.6128 141.084 19.8603 140.907 20.1783C140.734 20.4962 140.647 20.8645 140.647 21.283V27H138.842ZM157.863 27.1871C156.95 27.1871 156.163 26.9919 155.503 26.6016C154.847 26.2071 154.34 25.6538 153.981 24.9414C153.627 24.225 153.45 23.3859 153.45 22.424C153.45 21.4742 153.627 20.6371 153.981 19.9126C154.34 19.1882 154.839 18.6227 155.479 18.2163C156.123 17.8098 156.875 17.6065 157.736 17.6065C158.26 17.6065 158.767 17.6931 159.258 17.8661C159.749 18.0392 160.189 18.3108 160.58 18.6811C160.97 19.0514 161.278 19.5323 161.503 20.1239C161.729 20.7115 161.841 21.4259 161.841 22.267V22.907H154.47V21.5547H160.073C160.073 21.0798 159.976 20.6592 159.783 20.293C159.59 19.9227 159.318 19.6309 158.968 19.4176C158.622 19.2043 158.215 19.0977 157.748 19.0977C157.241 19.0977 156.799 19.2224 156.42 19.4719C156.046 19.7174 155.756 20.0394 155.551 20.4379C155.35 20.8323 155.249 21.2609 155.249 21.7237V22.7802C155.249 23.4 155.358 23.9272 155.575 24.3619C155.797 24.7965 156.104 25.1285 156.499 25.3579C156.893 25.5833 157.354 25.696 157.881 25.696C158.223 25.696 158.535 25.6477 158.817 25.5511C159.099 25.4505 159.342 25.3016 159.547 25.1044C159.753 24.9072 159.91 24.6637 160.018 24.3739L161.727 24.6818C161.59 25.1849 161.344 25.6256 160.99 26.0039C160.64 26.3782 160.199 26.67 159.668 26.8793C159.141 27.0845 158.539 27.1871 157.863 27.1871Z" fill="#E8E8E8"/>
<path d="M167.936 27V14.6364H173.091C174.017 14.6364 174.792 14.7672 175.415 15.0288C176.043 15.2904 176.514 15.6566 176.828 16.1275C177.146 16.5984 177.305 17.1437 177.305 17.7635C177.305 18.2344 177.206 18.6549 177.009 19.0252C176.812 19.3915 176.54 19.6953 176.194 19.9368C175.848 20.1783 175.448 20.3473 174.993 20.4439V20.5646C175.492 20.5888 175.953 20.7236 176.375 20.9691C176.802 21.2146 177.144 21.5567 177.402 21.9954C177.659 22.43 177.788 22.9452 177.788 23.5408C177.788 24.2049 177.619 24.7985 177.281 25.3217C176.943 25.8409 176.454 26.2514 175.814 26.5533C175.174 26.8511 174.397 27 173.484 27H167.936ZM170.924 24.5913H172.771C173.419 24.5913 173.896 24.4685 174.202 24.223C174.512 23.9775 174.667 23.6354 174.667 23.1967C174.667 22.8788 174.592 22.6051 174.443 22.3757C174.295 22.1423 174.083 21.9632 173.81 21.8384C173.536 21.7096 173.208 21.6452 172.826 21.6452H170.924V24.5913ZM170.924 19.7195H172.578C172.904 19.7195 173.194 19.6651 173.447 19.5565C173.701 19.4478 173.898 19.2908 174.039 19.0856C174.184 18.8803 174.256 18.6328 174.256 18.343C174.256 17.9285 174.109 17.6025 173.816 17.3651C173.522 17.1276 173.125 17.0089 172.626 17.0089H170.924V19.7195ZM183.553 27.1751C182.579 27.1751 181.742 26.9758 181.042 26.5774C180.346 26.1749 179.808 25.6155 179.43 24.8991C179.056 24.1787 178.869 23.3436 178.869 22.3938C178.869 21.44 179.056 20.6049 179.43 19.8885C179.808 19.1681 180.346 18.6087 181.042 18.2102C181.742 17.8078 182.579 17.6065 183.553 17.6065C184.527 17.6065 185.362 17.8078 186.059 18.2102C186.759 18.6087 187.296 19.1681 187.67 19.8885C188.049 20.6049 188.238 21.44 188.238 22.3938C188.238 23.3436 188.049 24.1787 187.67 24.8991C187.296 25.6155 186.759 26.1749 186.059 26.5774C185.362 26.9758 184.527 27.1751 183.553 27.1751ZM183.571 24.9474C183.925 24.9474 184.225 24.8388 184.471 24.6214C184.716 24.4041 184.903 24.1023 185.032 23.7159C185.165 23.3295 185.231 22.8828 185.231 22.3757C185.231 21.8606 185.165 21.4098 185.032 21.0234C184.903 20.6371 184.716 20.3352 184.471 20.1179C184.225 19.9006 183.925 19.7919 183.571 19.7919C183.205 19.7919 182.895 19.9006 182.642 20.1179C182.392 20.3352 182.201 20.6371 182.068 21.0234C181.939 21.4098 181.875 21.8606 181.875 22.3757C181.875 22.8828 181.939 23.3295 182.068 23.7159C182.201 24.1023 182.392 24.4041 182.642 24.6214C182.895 24.8388 183.205 24.9474 183.571 24.9474ZM194.079 27.1751C193.105 27.1751 192.268 26.9758 191.567 26.5774C190.871 26.1749 190.334 25.6155 189.955 24.8991C189.581 24.1787 189.394 23.3436 189.394 22.3938C189.394 21.44 189.581 20.6049 189.955 19.8885C190.334 19.1681 190.871 18.6087 191.567 18.2102C192.268 17.8078 193.105 17.6065 194.079 17.6065C195.053 17.6065 195.888 17.8078 196.584 18.2102C197.284 18.6087 197.821 19.1681 198.196 19.8885C198.574 20.6049 198.763 21.44 198.763 22.3938C198.763 23.3436 198.574 24.1787 198.196 24.8991C197.821 25.6155 197.284 26.1749 196.584 26.5774C195.888 26.9758 195.053 27.1751 194.079 27.1751ZM194.097 24.9474C194.451 24.9474 194.751 24.8388 194.996 24.6214C195.242 24.4041 195.429 24.1023 195.558 23.7159C195.69 23.3295 195.757 22.8828 195.757 22.3757C195.757 21.8606 195.69 21.4098 195.558 21.0234C195.429 20.6371 195.242 20.3352 194.996 20.1179C194.751 19.9006 194.451 19.7919 194.097 19.7919C193.73 19.7919 193.421 19.9006 193.167 20.1179C192.917 20.3352 192.726 20.6371 192.594 21.0234C192.465 21.4098 192.4 21.8606 192.4 22.3757C192.4 22.8828 192.465 23.3295 192.594 23.7159C192.726 24.1023 192.917 24.4041 193.167 24.6214C193.421 24.8388 193.73 24.9474 194.097 24.9474ZM208.371 20.5586L205.66 20.631C205.632 20.4379 205.556 20.2668 205.431 20.1179C205.306 19.965 205.143 19.8462 204.942 19.7617C204.745 19.6732 204.515 19.6289 204.254 19.6289C203.912 19.6289 203.62 19.6973 203.378 19.8342C203.141 19.971 203.024 20.1561 203.028 20.3896C203.024 20.5707 203.097 20.7276 203.246 20.8604C203.399 20.9932 203.67 21.0999 204.061 21.1804L205.848 21.5185C206.773 21.6955 207.461 21.9893 207.912 22.3999C208.367 22.8104 208.596 23.3537 208.6 24.0298C208.596 24.6657 208.407 25.2191 208.033 25.69C207.663 26.1609 207.156 26.5271 206.512 26.7887C205.868 27.0463 205.131 27.1751 204.302 27.1751C202.978 27.1751 201.934 26.9034 201.169 26.3601C200.408 25.8127 199.974 25.0803 199.865 24.1626L202.781 24.0902C202.845 24.4283 203.012 24.6858 203.282 24.8629C203.552 25.04 203.896 25.1285 204.314 25.1285C204.693 25.1285 205 25.0581 205.238 24.9173C205.475 24.7764 205.596 24.5892 205.6 24.3558C205.596 24.1465 205.503 23.9795 205.322 23.8548C205.141 23.726 204.858 23.6254 204.471 23.5529L202.853 23.245C201.924 23.076 201.231 22.7641 200.777 22.3093C200.322 21.8505 200.096 21.2669 200.1 20.5586C200.096 19.9388 200.261 19.4096 200.595 18.9709C200.929 18.5282 201.404 18.1901 202.02 17.9567C202.636 17.7232 203.362 17.6065 204.2 17.6065C205.455 17.6065 206.445 17.8701 207.17 18.3974C207.894 18.9206 208.295 19.641 208.371 20.5586ZM215.288 17.7273V19.9006H209.438V17.7273H215.288ZM210.664 15.5057H213.616V24.0842C213.616 24.2653 213.644 24.4122 213.7 24.5249C213.76 24.6335 213.847 24.712 213.96 24.7603C214.072 24.8046 214.207 24.8267 214.364 24.8267C214.477 24.8267 214.596 24.8166 214.72 24.7965C214.849 24.7724 214.946 24.7522 215.01 24.7361L215.457 26.8672C215.316 26.9074 215.117 26.9577 214.859 27.0181C214.606 27.0785 214.302 27.1167 213.948 27.1328C213.255 27.165 212.662 27.0845 212.167 26.8913C211.676 26.6941 211.299 26.3883 211.038 25.9737C210.78 25.5592 210.655 25.038 210.664 24.4102V15.5057ZM218.599 30.4773C218.245 30.4773 217.911 30.4491 217.597 30.3927C217.283 30.3404 217.013 30.27 216.788 30.1815L217.44 28.0383C217.73 28.1349 217.991 28.1913 218.225 28.2074C218.462 28.2235 218.665 28.1852 218.835 28.0927C219.008 28.0041 219.14 27.8452 219.233 27.6158L219.348 27.3381L216.052 17.7273H219.142L220.851 24.3437H220.947L222.68 17.7273H225.789L222.294 27.8874C222.125 28.3945 221.885 28.8413 221.575 29.2276C221.269 29.618 220.873 29.9239 220.386 30.1452C219.903 30.3666 219.307 30.4773 218.599 30.4773Z" fill="#F0602B"/>
</g>
<rect x="1.07143" y="1.07143" width="231.857" height="38.8571" rx="6.92857" stroke="white" stroke-opacity="0.15" stroke-width="2.14286"/>
<defs>
<filter id="filter0_d_1_84" x="3.39972" y="1.39972" width="39.202" height="39.202" filterUnits="userSpaceOnUse" color-interpolation-filters="sRGB">
<feFlood flood-opacity="0" result="BackgroundImageFix"/>
<feColorMatrix in="SourceAlpha" type="matrix" values="0 0 0 0 0 0 0 0 0 0 0 0 0 0 0 0 0 0 127 0" result="hardAlpha"/>
<feOffset/>
<feGaussianBlur stdDeviation="2.80014"/>
<feComposite in2="hardAlpha" operator="out"/>
<feColorMatrix type="matrix" values="0 0 0 0 0 0 0 0 0 0 0 0 0 0 0 0 0 0 0.25 0"/>
<feBlend mode="normal" in2="BackgroundImageFix" result="effect1_dropShadow_1_84"/>
<feBlend mode="normal" in="SourceGraphic" in2="effect1_dropShadow_1_84" result="shape"/>
</filter>
<filter id="filter1_d_1_84" x="37.2857" y="4.28571" width="194.429" height="32.4286" filterUnits="userSpaceOnUse" color-interpolation-filters="sRGB">
<feFlood flood-opacity="0" result="BackgroundImageFix"/>
<feColorMatrix in="SourceAlpha" type="matrix" values="0 0 0 0 0 0 0 0 0 0 0 0 0 0 0 0 0 0 127 0" result="hardAlpha"/>
<feOffset/>
<feGaussianBlur stdDeviation="2.85714"/>
<feComposite in2="hardAlpha" operator="out"/>
<feColorMatrix type="matrix" values="0 0 0 0 0 0 0 0 0 0 0 0 0 0 0 0 0 0 0.25 0"/>
<feBlend mode="normal" in2="BackgroundImageFix" result="effect1_dropShadow_1_84"/>
<feBlend mode="normal" in="SourceGraphic" in2="effect1_dropShadow_1_84" result="shape"/>
</filter>
<linearGradient id="paint0_linear_1_84" x1="117" y1="0" x2="117" y2="41" gradientUnits="userSpaceOnUse">
<stop stop-color="#51310D"/>
<stop offset="1" stop-color="#200908"/>
</linearGradient>
<linearGradient id="paint1_linear_1_84" x1="26.0217" y1="14.4363" x2="20.7139" y2="36.8857" gradientUnits="userSpaceOnUse">
<stop stop-color="#EF7829"/>
<stop offset="0.0518954" stop-color="#F07529"/>
<stop offset="0.3551" stop-color="#F0672B"/>
<stop offset="0.6673" stop-color="#F15E2C"/>
<stop offset="1" stop-color="#F15A2C"/>
</linearGradient>
<clipPath id="clip0_1_84">
<rect width="29" height="29" fill="white" transform="translate(8 6)"/>
</clipPath>
</defs>
</svg>
