<svg width="185" height="56" viewBox="0 0 185 56" fill="none" xmlns="http://www.w3.org/2000/svg">
<rect width="185" height="56" rx="8" fill="url(#paint0_linear_7_2)"/>
<g filter="url(#filter0_d_7_2)">
<path d="M18.5954 31.1488L24.3276 15.1425H33.1368L31.3609 20.1046C31.3433 20.133 31.3258 20.1613 31.3082 20.1897L26.631 33.2896H30.9917C29.163 36.9616 27.7387 39.8396 26.7189 41.9237C18.6657 41.8528 16.415 37.2026 18.3844 31.7018M26.7541 41.9379L37.3744 29.6177H32.8731L36.7942 21.7208C43.511 22.2879 46.6761 26.5553 44.8122 31.7159C42.8253 37.2593 34.7721 41.9379 26.9299 41.9379C26.8596 41.9379 26.8068 41.9379 26.7541 41.9379Z" fill="url(#paint1_linear_7_2)"/>
</g>
<g filter="url(#filter1_d_7_2)">
<path d="M67.625 15.9205C67.5644 15.3826 67.3144 14.9659 66.875 14.6705C66.4356 14.3712 65.8826 14.2216 65.2159 14.2216C64.7386 14.2216 64.3258 14.2974 63.9773 14.4489C63.6288 14.5966 63.358 14.8011 63.1648 15.0625C62.9754 15.3201 62.8807 15.6136 62.8807 15.9432C62.8807 16.2197 62.9451 16.4583 63.0739 16.6591C63.2064 16.8598 63.3788 17.0284 63.5909 17.1648C63.8068 17.2973 64.0379 17.4091 64.2841 17.5C64.5303 17.5871 64.767 17.6591 64.9943 17.7159L66.1307 18.0114C66.5019 18.1023 66.8826 18.2254 67.2727 18.3807C67.6629 18.536 68.0246 18.7405 68.358 18.9943C68.6913 19.2481 68.9602 19.5625 69.1648 19.9375C69.3731 20.3125 69.4773 20.7614 69.4773 21.2841C69.4773 21.9432 69.3068 22.5284 68.9659 23.0398C68.6288 23.5511 68.1383 23.9545 67.4943 24.25C66.8542 24.5455 66.0795 24.6932 65.1705 24.6932C64.2992 24.6932 63.5455 24.5549 62.9091 24.2784C62.2727 24.0019 61.7746 23.6098 61.4148 23.1023C61.0549 22.5909 60.8561 21.9848 60.8182 21.2841H62.5795C62.6136 21.7045 62.75 22.0549 62.9886 22.3352C63.2311 22.6117 63.5398 22.8182 63.9148 22.9545C64.2936 23.0871 64.7083 23.1534 65.1591 23.1534C65.6553 23.1534 66.0966 23.0758 66.483 22.9205C66.8731 22.7614 67.1799 22.5417 67.4034 22.2614C67.6269 21.9773 67.7386 21.6458 67.7386 21.267C67.7386 20.9223 67.6401 20.6402 67.4432 20.4205C67.25 20.2008 66.9867 20.0189 66.6534 19.875C66.3239 19.7311 65.9508 19.6042 65.5341 19.4943L64.1591 19.1193C63.2273 18.8655 62.4886 18.4924 61.9432 18C61.4015 17.5076 61.1307 16.8561 61.1307 16.0455C61.1307 15.375 61.3125 14.7898 61.6761 14.2898C62.0398 13.7898 62.5322 13.4015 63.1534 13.125C63.7746 12.8447 64.4754 12.7045 65.2557 12.7045C66.0436 12.7045 66.7386 12.8428 67.3409 13.1193C67.947 13.3958 68.4242 13.7765 68.7727 14.2614C69.1212 14.7424 69.303 15.2955 69.3182 15.9205H67.625ZM76.9673 20.8807V15.7727H78.6719V24.5H77.0014V22.9886H76.9105C76.7097 23.4545 76.3878 23.8428 75.9446 24.1534C75.5052 24.4602 74.9579 24.6136 74.3026 24.6136C73.7419 24.6136 73.2457 24.4905 72.8139 24.2443C72.3859 23.9943 72.0488 23.625 71.8026 23.1364C71.5601 22.6477 71.4389 22.0436 71.4389 21.3239V15.7727H73.1378V21.1193C73.1378 21.714 73.3026 22.1875 73.6321 22.5398C73.9616 22.892 74.3897 23.0682 74.9162 23.0682C75.2344 23.0682 75.5507 22.9886 75.8651 22.8295C76.1832 22.6705 76.4465 22.4299 76.6548 22.108C76.8669 21.786 76.9711 21.3769 76.9673 20.8807ZM80.9545 27.7727V15.7727H82.6136V17.1875H82.7557C82.8542 17.0057 82.9962 16.7955 83.1818 16.5568C83.3674 16.3182 83.625 16.1098 83.9545 15.9318C84.2841 15.75 84.7197 15.6591 85.2614 15.6591C85.9659 15.6591 86.5947 15.8371 87.1477 16.1932C87.7007 16.5492 88.1345 17.0625 88.4489 17.733C88.767 18.4034 88.9261 19.2102 88.9261 20.1534C88.9261 21.0966 88.7689 21.9053 88.4545 22.5795C88.1401 23.25 87.7083 23.767 87.1591 24.1307C86.6098 24.4905 85.9829 24.6705 85.2784 24.6705C84.7481 24.6705 84.3144 24.5814 83.9773 24.4034C83.6439 24.2254 83.3826 24.017 83.1932 23.7784C83.0038 23.5398 82.8579 23.3277 82.7557 23.142H82.6534V27.7727H80.9545ZM82.6193 20.1364C82.6193 20.75 82.7083 21.2879 82.8864 21.75C83.0644 22.2121 83.322 22.5739 83.6591 22.8352C83.9962 23.0928 84.4091 23.2216 84.8977 23.2216C85.4053 23.2216 85.8295 23.0871 86.1704 22.8182C86.5114 22.5455 86.7689 22.1761 86.9432 21.7102C87.1212 21.2443 87.2102 20.7197 87.2102 20.1364C87.2102 19.5606 87.1231 19.0436 86.9489 18.5852C86.7784 18.1269 86.5208 17.7652 86.1761 17.5C85.8352 17.2348 85.4091 17.1023 84.8977 17.1023C84.4053 17.1023 83.9886 17.2292 83.6477 17.483C83.3106 17.7367 83.0549 18.0909 82.8807 18.5455C82.7064 19 82.6193 19.5303 82.6193 20.1364ZM90.8295 27.7727V15.7727H92.4886V17.1875H92.6307C92.7292 17.0057 92.8712 16.7955 93.0568 16.5568C93.2424 16.3182 93.5 16.1098 93.8295 15.9318C94.1591 15.75 94.5947 15.6591 95.1364 15.6591C95.8409 15.6591 96.4697 15.8371 97.0227 16.1932C97.5757 16.5492 98.0095 17.0625 98.3239 17.733C98.642 18.4034 98.8011 19.2102 98.8011 20.1534C98.8011 21.0966 98.6439 21.9053 98.3295 22.5795C98.0151 23.25 97.5833 23.767 97.0341 24.1307C96.4848 24.4905 95.8579 24.6705 95.1534 24.6705C94.6231 24.6705 94.1894 24.5814 93.8523 24.4034C93.5189 24.2254 93.2576 24.017 93.0682 23.7784C92.8788 23.5398 92.7329 23.3277 92.6307 23.142H92.5284V27.7727H90.8295ZM92.4943 20.1364C92.4943 20.75 92.5833 21.2879 92.7614 21.75C92.9394 22.2121 93.197 22.5739 93.5341 22.8352C93.8712 23.0928 94.2841 23.2216 94.7727 23.2216C95.2803 23.2216 95.7045 23.0871 96.0454 22.8182C96.3864 22.5455 96.6439 22.1761 96.8182 21.7102C96.9962 21.2443 97.0852 20.7197 97.0852 20.1364C97.0852 19.5606 96.9981 19.0436 96.8239 18.5852C96.6534 18.1269 96.3958 17.7652 96.0511 17.5C95.7102 17.2348 95.2841 17.1023 94.7727 17.1023C94.2803 17.1023 93.8636 17.2292 93.5227 17.483C93.1856 17.7367 92.9299 18.0909 92.7557 18.5455C92.5814 19 92.4943 19.5303 92.4943 20.1364ZM104.381 24.6761C103.562 24.6761 102.848 24.4886 102.239 24.1136C101.629 23.7386 101.155 23.214 100.818 22.5398C100.481 21.8655 100.312 21.0777 100.312 20.1761C100.312 19.2708 100.481 18.4792 100.818 17.8011C101.155 17.1231 101.629 16.5966 102.239 16.2216C102.848 15.8466 103.562 15.6591 104.381 15.6591C105.199 15.6591 105.913 15.8466 106.523 16.2216C107.133 16.5966 107.606 17.1231 107.943 17.8011C108.28 18.4792 108.449 19.2708 108.449 20.1761C108.449 21.0777 108.28 21.8655 107.943 22.5398C107.606 23.214 107.133 23.7386 106.523 24.1136C105.913 24.4886 105.199 24.6761 104.381 24.6761ZM104.386 23.25C104.917 23.25 105.356 23.1098 105.705 22.8295C106.053 22.5492 106.311 22.1761 106.477 21.7102C106.648 21.2443 106.733 20.7311 106.733 20.1705C106.733 19.6136 106.648 19.1023 106.477 18.6364C106.311 18.1667 106.053 17.7898 105.705 17.5057C105.356 17.2216 104.917 17.0795 104.386 17.0795C103.852 17.0795 103.409 17.2216 103.057 17.5057C102.708 17.7898 102.449 18.1667 102.278 18.6364C102.112 19.1023 102.028 19.6136 102.028 20.1705C102.028 20.7311 102.112 21.2443 102.278 21.7102C102.449 22.1761 102.708 22.5492 103.057 22.8295C103.409 23.1098 103.852 23.25 104.386 23.25ZM110.345 24.5V15.7727H111.987V17.1591H112.078C112.237 16.6894 112.518 16.3201 112.919 16.0511C113.324 15.7784 113.783 15.642 114.294 15.642C114.4 15.642 114.525 15.6458 114.669 15.6534C114.817 15.661 114.932 15.6705 115.016 15.6818V17.3068C114.947 17.2879 114.826 17.267 114.652 17.2443C114.478 17.2178 114.303 17.2045 114.129 17.2045C113.728 17.2045 113.37 17.2898 113.055 17.4602C112.745 17.6269 112.499 17.8598 112.317 18.1591C112.135 18.4545 112.044 18.7917 112.044 19.1705V24.5H110.345ZM121.075 15.7727V17.1364H116.308V15.7727H121.075ZM117.587 13.6818H119.285V21.9375C119.285 22.267 119.335 22.5152 119.433 22.6818C119.532 22.8447 119.659 22.9564 119.814 23.017C119.973 23.0739 120.145 23.1023 120.331 23.1023C120.467 23.1023 120.587 23.0928 120.689 23.0739C120.791 23.0549 120.871 23.0398 120.928 23.0284L121.234 24.4318C121.136 24.4697 120.996 24.5076 120.814 24.5455C120.632 24.5871 120.405 24.6098 120.132 24.6136C119.685 24.6212 119.268 24.5417 118.882 24.375C118.496 24.2083 118.183 23.9508 117.945 23.6023C117.706 23.2538 117.587 22.8163 117.587 22.2898V13.6818ZM127.325 24.5V12.8636H129.024V17.1875H129.126C129.225 17.0057 129.367 16.7955 129.553 16.5568C129.738 16.3182 129.996 16.1098 130.325 15.9318C130.655 15.75 131.09 15.6591 131.632 15.6591C132.337 15.6591 132.965 15.8371 133.518 16.1932C134.071 16.5492 134.505 17.0625 134.82 17.733C135.138 18.4034 135.297 19.2102 135.297 20.1534C135.297 21.0966 135.14 21.9053 134.825 22.5795C134.511 23.25 134.079 23.767 133.53 24.1307C132.981 24.4905 132.354 24.6705 131.649 24.6705C131.119 24.6705 130.685 24.5814 130.348 24.4034C130.015 24.2254 129.753 24.017 129.564 23.7784C129.375 23.5398 129.229 23.3277 129.126 23.142H128.984V24.5H127.325ZM128.99 20.1364C128.99 20.75 129.079 21.2879 129.257 21.75C129.435 22.2121 129.693 22.5739 130.03 22.8352C130.367 23.0928 130.78 23.2216 131.268 23.2216C131.776 23.2216 132.2 23.0871 132.541 22.8182C132.882 22.5455 133.14 22.1761 133.314 21.7102C133.492 21.2443 133.581 20.7197 133.581 20.1364C133.581 19.5606 133.494 19.0436 133.32 18.5852C133.149 18.1269 132.892 17.7652 132.547 17.5C132.206 17.2348 131.78 17.1023 131.268 17.1023C130.776 17.1023 130.359 17.2292 130.018 17.483C129.681 17.7367 129.426 18.0909 129.251 18.5455C129.077 19 128.99 19.5303 128.99 20.1364ZM137.982 27.7727C137.728 27.7727 137.497 27.7519 137.288 27.7102C137.08 27.6723 136.925 27.6307 136.822 27.5852L137.232 26.1932C137.542 26.2765 137.819 26.3125 138.061 26.3011C138.303 26.2898 138.517 26.1989 138.703 26.0284C138.892 25.858 139.059 25.5795 139.203 25.1932L139.413 24.6136L136.22 15.7727H138.038L140.249 22.5455H140.339L142.55 15.7727H144.374L140.777 25.6648C140.61 26.1193 140.398 26.5038 140.141 26.8182C139.883 27.1364 139.576 27.375 139.22 27.5341C138.864 27.6932 138.451 27.7727 137.982 27.7727ZM150.205 24.5V15.7727H151.835V17.1932H151.943C152.125 16.7121 152.422 16.3371 152.835 16.0682C153.248 15.7955 153.742 15.6591 154.318 15.6591C154.901 15.6591 155.39 15.7955 155.784 16.0682C156.182 16.3409 156.475 16.7159 156.665 17.1932H156.756C156.964 16.7273 157.295 16.3561 157.75 16.0795C158.205 15.7992 158.746 15.6591 159.375 15.6591C160.167 15.6591 160.812 15.9072 161.312 16.4034C161.816 16.8996 162.068 17.6477 162.068 18.6477V24.5H160.369V18.8068C160.369 18.2159 160.208 17.7879 159.886 17.5227C159.564 17.2576 159.18 17.125 158.733 17.125C158.18 17.125 157.75 17.2955 157.443 17.6364C157.136 17.9735 156.983 18.4072 156.983 18.9375V24.5H155.29V18.6989C155.29 18.2254 155.142 17.8447 154.847 17.5568C154.551 17.2689 154.167 17.125 153.693 17.125C153.371 17.125 153.074 17.2102 152.801 17.3807C152.532 17.5473 152.314 17.7803 152.148 18.0795C151.985 18.3788 151.903 18.7254 151.903 19.1193V24.5H150.205ZM168.107 24.6761C167.247 24.6761 166.506 24.4924 165.885 24.125C165.267 23.7538 164.79 23.233 164.453 22.5625C164.12 21.8883 163.953 21.0985 163.953 20.1932C163.953 19.2992 164.12 18.5114 164.453 17.8295C164.79 17.1477 165.26 16.6155 165.862 16.233C166.468 15.8504 167.177 15.6591 167.987 15.6591C168.48 15.6591 168.957 15.7405 169.419 15.9034C169.881 16.0663 170.296 16.322 170.663 16.6705C171.031 17.0189 171.321 17.4716 171.533 18.0284C171.745 18.5814 171.851 19.2538 171.851 20.0455V20.6477H164.913V19.375H170.186C170.186 18.928 170.095 18.5322 169.913 18.1875C169.732 17.839 169.476 17.5644 169.146 17.3636C168.821 17.1629 168.438 17.0625 167.999 17.0625C167.521 17.0625 167.105 17.1799 166.749 17.4148C166.396 17.6458 166.124 17.9489 165.93 18.3239C165.741 18.6951 165.646 19.0985 165.646 19.5341V20.5284C165.646 21.1117 165.749 21.608 165.953 22.017C166.161 22.4261 166.451 22.7386 166.822 22.9545C167.194 23.1667 167.627 23.2727 168.124 23.2727C168.446 23.2727 168.739 23.2273 169.004 23.1364C169.269 23.0417 169.499 22.9015 169.692 22.7159C169.885 22.5303 170.033 22.3011 170.135 22.0284L171.743 22.3182C171.614 22.7917 171.383 23.2064 171.05 23.5625C170.72 23.9148 170.305 24.1894 169.805 24.3864C169.309 24.5795 168.743 24.6761 168.107 24.6761Z" fill="#E8E8E8"/>
<path d="M60.9357 43.5V31.1364H66.0913C67.0169 31.1364 67.7917 31.2672 68.4155 31.5288C69.0433 31.7904 69.5142 32.1566 69.8281 32.6275C70.1461 33.0984 70.305 33.6437 70.305 34.2635C70.305 34.7344 70.2064 35.1549 70.0092 35.5252C69.812 35.8914 69.5404 36.1953 69.1942 36.4368C68.8481 36.6783 68.4477 36.8473 67.9929 36.9439V37.0646C68.4919 37.0888 68.9528 37.2236 69.3754 37.4691C69.802 37.7146 70.1441 38.0567 70.4016 38.4954C70.6592 38.93 70.788 39.4452 70.788 40.0408C70.788 40.7049 70.619 41.2985 70.2809 41.8217C69.9428 42.3409 69.4538 42.7514 68.8139 43.0533C68.174 43.3511 67.3973 43.5 66.4837 43.5H60.9357ZM63.924 41.0913H65.7713C66.4193 41.0913 66.8962 40.9685 67.2021 40.723C67.512 40.4775 67.6669 40.1354 67.6669 39.6967C67.6669 39.3788 67.5924 39.1051 67.4435 38.8757C67.2946 38.6423 67.0833 38.4632 66.8097 38.3384C66.536 38.2096 66.208 38.1452 65.8256 38.1452H63.924V41.0913ZM63.924 36.2195H65.5781C65.9041 36.2195 66.1939 36.1651 66.4474 36.0565C66.701 35.9478 66.8982 35.7908 67.0391 35.5856C67.1839 35.3803 67.2564 35.1328 67.2564 34.843C67.2564 34.4285 67.1095 34.1025 66.8157 33.8651C66.5219 33.6276 66.1255 33.5089 65.6264 33.5089H63.924V36.2195ZM76.5533 43.6751C75.5793 43.6751 74.7422 43.4758 74.0419 43.0774C73.3456 42.6749 72.8084 42.1155 72.43 41.3991C72.0557 40.6787 71.8686 39.8436 71.8686 38.8938C71.8686 37.94 72.0557 37.1049 72.43 36.3885C72.8084 35.6681 73.3456 35.1087 74.0419 34.7102C74.7422 34.3078 75.5793 34.1065 76.5533 34.1065C77.5272 34.1065 78.3623 34.3078 79.0586 34.7102C79.7589 35.1087 80.2962 35.6681 80.6704 36.3885C81.0488 37.1049 81.2379 37.94 81.2379 38.8938C81.2379 39.8436 81.0488 40.6787 80.6704 41.3991C80.2962 42.1155 79.7589 42.6749 79.0586 43.0774C78.3623 43.4758 77.5272 43.6751 76.5533 43.6751ZM76.5714 41.4474C76.9255 41.4474 77.2254 41.3388 77.4709 41.1214C77.7164 40.9041 77.9035 40.6023 78.0323 40.2159C78.1651 39.8295 78.2315 39.3828 78.2315 38.8757C78.2315 38.3606 78.1651 37.9098 78.0323 37.5234C77.9035 37.1371 77.7164 36.8352 77.4709 36.6179C77.2254 36.4006 76.9255 36.2919 76.5714 36.2919C76.2051 36.2919 75.8952 36.4006 75.6417 36.6179C75.3922 36.8352 75.201 37.1371 75.0682 37.5234C74.9394 37.9098 74.875 38.3606 74.875 38.8757C74.875 39.3828 74.9394 39.8295 75.0682 40.2159C75.201 40.6023 75.3922 40.9041 75.6417 41.1214C75.8952 41.3388 76.2051 41.4474 76.5714 41.4474ZM87.0786 43.6751C86.1047 43.6751 85.2676 43.4758 84.5673 43.0774C83.871 42.6749 83.3337 42.1155 82.9554 41.3991C82.5811 40.6787 82.394 39.8436 82.394 38.8938C82.394 37.94 82.5811 37.1049 82.9554 36.3885C83.3337 35.6681 83.871 35.1087 84.5673 34.7102C85.2676 34.3078 86.1047 34.1065 87.0786 34.1065C88.0526 34.1065 88.8877 34.3078 89.584 34.7102C90.2843 35.1087 90.8215 35.6681 91.1958 36.3885C91.5742 37.1049 91.7633 37.94 91.7633 38.8938C91.7633 39.8436 91.5742 40.6787 91.1958 41.3991C90.8215 42.1155 90.2843 42.6749 89.584 43.0774C88.8877 43.4758 88.0526 43.6751 87.0786 43.6751ZM87.0968 41.4474C87.4509 41.4474 87.7508 41.3388 87.9963 41.1214C88.2418 40.9041 88.4289 40.6023 88.5577 40.2159C88.6905 39.8295 88.7569 39.3828 88.7569 38.8757C88.7569 38.3606 88.6905 37.9098 88.5577 37.5234C88.4289 37.1371 88.2418 36.8352 87.9963 36.6179C87.7508 36.4006 87.4509 36.2919 87.0968 36.2919C86.7305 36.2919 86.4206 36.4006 86.1671 36.6179C85.9175 36.8352 85.7264 37.1371 85.5936 37.5234C85.4648 37.9098 85.4004 38.3606 85.4004 38.8757C85.4004 39.3828 85.4648 39.8295 85.5936 40.2159C85.7264 40.6023 85.9175 40.9041 86.1671 41.1214C86.4206 41.3388 86.7305 41.4474 87.0968 41.4474ZM101.371 37.0586L98.6605 37.131C98.6323 36.9379 98.5559 36.7668 98.4311 36.6179C98.3063 36.465 98.1433 36.3462 97.9421 36.2617C97.7449 36.1732 97.5155 36.1289 97.2539 36.1289C96.9118 36.1289 96.62 36.1973 96.3785 36.3342C96.1411 36.471 96.0244 36.6561 96.0284 36.8896C96.0244 37.0707 96.0968 37.2276 96.2457 37.3604C96.3987 37.4932 96.6703 37.5999 97.0607 37.6804L98.8476 38.0185C99.7733 38.1955 100.462 38.4893 100.912 38.8999C101.367 39.3104 101.596 39.8537 101.6 40.5298C101.596 41.1657 101.407 41.7191 101.033 42.19C100.663 42.6609 100.156 43.0271 99.5117 43.2887C98.8678 43.5463 98.1313 43.6751 97.3022 43.6751C95.9781 43.6751 94.9337 43.4034 94.169 42.8601C93.4084 42.3127 92.9737 41.5802 92.865 40.6626L95.7809 40.5902C95.8453 40.9283 96.0123 41.1858 96.2819 41.3629C96.5516 41.54 96.8957 41.6285 97.3143 41.6285C97.6926 41.6285 98.0005 41.5581 98.2379 41.4173C98.4754 41.2764 98.5961 41.0892 98.6001 40.8558C98.5961 40.6465 98.5035 40.4795 98.3224 40.3548C98.1413 40.226 97.8576 40.1253 97.4712 40.0529L95.8533 39.745C94.9236 39.576 94.2314 39.2641 93.7766 38.8093C93.3218 38.3505 93.0965 37.7669 93.1005 37.0586C93.0965 36.4388 93.2615 35.9096 93.5955 35.4709C93.9296 35.0282 94.4045 34.6901 95.0202 34.4567C95.636 34.2232 96.3624 34.1065 97.1996 34.1065C98.4552 34.1065 99.4453 34.3701 100.17 34.8974C100.894 35.4206 101.295 36.141 101.371 37.0586ZM108.288 34.2273V36.4006H102.438V34.2273H108.288ZM103.664 32.0057H106.616V40.5842C106.616 40.7653 106.644 40.9122 106.7 41.0249C106.761 41.1335 106.847 41.212 106.96 41.2603C107.072 41.3046 107.207 41.3267 107.364 41.3267C107.477 41.3267 107.596 41.3166 107.72 41.2965C107.849 41.2724 107.946 41.2522 108.01 41.2361L108.457 43.3672C108.316 43.4074 108.117 43.4577 107.859 43.5181C107.606 43.5785 107.302 43.6167 106.948 43.6328C106.255 43.665 105.662 43.5845 105.167 43.3913C104.676 43.1941 104.299 42.8883 104.038 42.4737C103.78 42.0592 103.656 41.538 103.664 40.9102V32.0057ZM111.599 46.9773C111.245 46.9773 110.911 46.9491 110.597 46.8927C110.283 46.8404 110.013 46.77 109.788 46.6815L110.44 44.5383C110.73 44.6349 110.991 44.6913 111.225 44.7074C111.462 44.7235 111.666 44.6852 111.835 44.5927C112.008 44.5041 112.14 44.3452 112.233 44.1158L112.348 43.8381L109.052 34.2273H112.142L113.851 40.8437H113.948L115.68 34.2273H118.789L115.294 44.3874C115.125 44.8945 114.885 45.3413 114.575 45.7276C114.269 46.118 113.873 46.4239 113.386 46.6452C112.903 46.8666 112.307 46.9773 111.599 46.9773Z" fill="#F0602B"/>
</g>
<rect x="1.05" y="1.05" width="182.9" height="53.9" rx="6.95" stroke="white" stroke-opacity="0.15" stroke-width="2.1"/>
<defs>
<filter id="filter0_d_7_2" x="6.39972" y="2.39972" width="51.2006" height="51.2006" filterUnits="userSpaceOnUse" color-interpolation-filters="sRGB">
<feFlood flood-opacity="0" result="BackgroundImageFix"/>
<feColorMatrix in="SourceAlpha" type="matrix" values="0 0 0 0 0 0 0 0 0 0 0 0 0 0 0 0 0 0 127 0" result="hardAlpha"/>
<feOffset/>
<feGaussianBlur stdDeviation="2.80014"/>
<feComposite in2="hardAlpha" operator="out"/>
<feColorMatrix type="matrix" values="0 0 0 0 0 0 0 0 0 0 0 0 0 0 0 0 0 0 0.25 0"/>
<feBlend mode="normal" in2="BackgroundImageFix" result="effect1_dropShadow_7_2"/>
<feBlend mode="normal" in="SourceGraphic" in2="effect1_dropShadow_7_2" result="shape"/>
</filter>
<filter id="filter1_d_7_2" x="54.4" y="3.9" width="124.2" height="48.6773" filterUnits="userSpaceOnUse" color-interpolation-filters="sRGB">
<feFlood flood-opacity="0" result="BackgroundImageFix"/>
<feColorMatrix in="SourceAlpha" type="matrix" values="0 0 0 0 0 0 0 0 0 0 0 0 0 0 0 0 0 0 127 0" result="hardAlpha"/>
<feOffset/>
<feGaussianBlur stdDeviation="2.8"/>
<feComposite in2="hardAlpha" operator="out"/>
<feColorMatrix type="matrix" values="0 0 0 0 0 0 0 0 0 0 0 0 0 0 0 0 0 0 0.25 0"/>
<feBlend mode="normal" in2="BackgroundImageFix" result="effect1_dropShadow_7_2"/>
<feBlend mode="normal" in="SourceGraphic" in2="effect1_dropShadow_7_2" result="shape"/>
</filter>
<linearGradient id="paint0_linear_7_2" x1="92.5" y1="0" x2="92.5" y2="56" gradientUnits="userSpaceOnUse">
<stop stop-color="#51310D"/>
<stop offset="1" stop-color="#210E0C"/>
</linearGradient>
<linearGradient id="paint1_linear_7_2" x1="36.3155" y1="18.6228" x2="28.7334" y2="50.6917" gradientUnits="userSpaceOnUse">
<stop stop-color="#EF7829"/>
<stop offset="0.0518954" stop-color="#F07529"/>
<stop offset="0.3551" stop-color="#F0672B"/>
<stop offset="0.6673" stop-color="#F15E2C"/>
<stop offset="1" stop-color="#F15A2C"/>
</linearGradient>
</defs>
</svg>
