<svg width="56" height="56" viewBox="0 0 56 56" fill="none" xmlns="http://www.w3.org/2000/svg">
<rect width="56" height="56" rx="8.4" fill="url(#paint0_linear_7_14)"/>
<g filter="url(#filter0_d_7_14)">
<path d="M28.2069 31.2929H25.0648C24.8819 31.2937 24.7072 31.2343 24.5842 31.1297C24.4612 31.0251 24.4014 30.8851 24.4196 30.7444L24.6971 28.3009C24.724 28.0412 25.0052 27.8413 25.3423 27.8421H28.4843C28.6672 27.8414 28.8419 27.9008 28.9649 28.0054C29.088 28.11 29.1478 28.25 29.1295 28.3907L28.8521 30.8342C28.8251 31.0939 28.544 31.2938 28.2069 31.2929ZM28.7105 26.5089H25.51C25.1565 26.5089 24.8699 26.2709 24.8699 25.9773L25.7404 17.7222C25.7795 17.4538 26.055 17.2525 26.3805 17.2545H29.581C29.9345 17.2545 30.2211 17.4924 30.2211 17.786L29.325 26.0464C29.2843 26.3048 29.0241 26.5006 28.7105 26.5089ZM47.5289 16.8823C47.8695 17.2234 48.0359 17.6675 47.9907 18.1147L46.7398 30.3786C46.6996 30.7798 46.4921 31.1551 46.1552 31.4357L35.9256 39.9523C35.5604 40.2552 35.0718 40.4242 34.5636 40.4232H23.6734L14.0867 47.998L14.8291 40.4182H9.95394C9.40639 40.4186 8.88382 40.2219 8.51368 39.8761C8.14354 39.5303 7.95984 39.0672 8.00738 38.5997L10.9827 9.50293C11.0848 8.64782 11.9263 7.99811 12.9293 8H37.7552C38.3263 7.99986 38.8689 8.21405 39.24 8.58615L47.5289 16.8823ZM39.9473 28.0391L40.7423 20.4693C40.7731 20.0205 40.5919 19.58 40.2396 19.2469L35.5631 14.6179C35.1926 14.2522 34.6552 14.042 34.0901 14.0418H19.3594C18.3564 14.0399 17.5149 14.6896 17.4128 15.5447L15.6592 32.5779C15.6188 33.044 15.8049 33.5036 16.1736 33.848C16.5422 34.1923 17.0605 34.3908 17.6057 34.3965H32.0909C32.5934 34.3975 33.0771 34.2324 33.4412 33.9356L39.3627 29.1012C39.7009 28.8193 39.9085 28.442 39.9473 28.0391Z" fill="url(#paint1_linear_7_14)"/>
</g>
<rect x="1.05" y="1.05" width="53.9" height="53.9" rx="7.35" stroke="white" stroke-opacity="0.15" stroke-width="2.1"/>
<defs>
<filter id="filter0_d_7_14" x="2.39972" y="2.39972" width="51.2006" height="51.2006" filterUnits="userSpaceOnUse" color-interpolation-filters="sRGB">
<feFlood flood-opacity="0" result="BackgroundImageFix"/>
<feColorMatrix in="SourceAlpha" type="matrix" values="0 0 0 0 0 0 0 0 0 0 0 0 0 0 0 0 0 0 127 0" result="hardAlpha"/>
<feOffset/>
<feGaussianBlur stdDeviation="2.80014"/>
<feComposite in2="hardAlpha" operator="out"/>
<feColorMatrix type="matrix" values="0 0 0 0 0 0 0 0 0 0 0 0 0 0 0 0 0 0 0.25 0"/>
<feBlend mode="normal" in2="BackgroundImageFix" result="effect1_dropShadow_7_14"/>
<feBlend mode="normal" in="SourceGraphic" in2="effect1_dropShadow_7_14" result="shape"/>
</filter>
<linearGradient id="paint0_linear_7_14" x1="28" y1="0" x2="28" y2="56" gradientUnits="userSpaceOnUse">
<stop stop-color="#AB7307"/>
<stop offset="1" stop-color="#200908"/>
</linearGradient>
<linearGradient id="paint1_linear_7_14" x1="3495.64" y1="8.00001" x2="520.162" y2="4007.8" gradientUnits="userSpaceOnUse">
<stop stop-color="#F59C07"/>
<stop offset="1" stop-color="#F57507"/>
</linearGradient>
</defs>
</svg>
