<svg width="201" height="56" viewBox="0 0 201 56" fill="none" xmlns="http://www.w3.org/2000/svg">
<rect width="201" height="56" rx="8" fill="url(#paint0_linear_7_8)"/>
<g clip-path="url(#clip0_7_8)" filter="url(#filter0_d_7_8)">
<path d="M32.2069 31.2929H29.0648C28.8819 31.2937 28.7072 31.2343 28.5842 31.1297C28.4612 31.0251 28.4014 30.8851 28.4196 30.7444L28.6971 28.3009C28.724 28.0412 29.0052 27.8413 29.3423 27.8421H32.4843C32.6672 27.8414 32.8419 27.9008 32.9649 28.0054C33.088 28.11 33.1478 28.25 33.1295 28.3907L32.8521 30.8342C32.8251 31.0939 32.544 31.2938 32.2069 31.2929ZM32.7105 26.5089H29.51C29.1565 26.5089 28.8699 26.2709 28.8699 25.9773L29.7404 17.7222C29.7795 17.4538 30.055 17.2525 30.3805 17.2545H33.581C33.9345 17.2545 34.2211 17.4924 34.2211 17.786L33.325 26.0464C33.2843 26.3048 33.0241 26.5006 32.7105 26.5089ZM51.5289 16.8823C51.8695 17.2234 52.0359 17.6675 51.9907 18.1147L50.7398 30.3786C50.6996 30.7798 50.4921 31.1551 50.1552 31.4357L39.9256 39.9523C39.5604 40.2552 39.0718 40.4242 38.5636 40.4232H27.6734L18.0867 47.998L18.8291 40.4182H13.9539C13.4064 40.4186 12.8838 40.2219 12.5137 39.8761C12.1435 39.5303 11.9598 39.0672 12.0074 38.5997L14.9827 9.50293C15.0848 8.64782 15.9263 7.99811 16.9293 8H41.7552C42.3263 7.99986 42.8689 8.21405 43.24 8.58615L51.5289 16.8823ZM43.9473 28.0391L44.7423 20.4693C44.7731 20.0205 44.5919 19.58 44.2396 19.2469L39.5631 14.6179C39.1926 14.2522 38.6552 14.042 38.0901 14.0418H23.3594C22.3564 14.0399 21.5149 14.6896 21.4128 15.5447L19.6592 32.5779C19.6188 33.044 19.8049 33.5036 20.1736 33.848C20.5422 34.1923 21.0605 34.3908 21.6057 34.3965H36.0909C36.5934 34.3975 37.0771 34.2324 37.4412 33.9356L43.3627 29.1012C43.7009 28.8193 43.9085 28.442 43.9473 28.0391Z" fill="url(#paint1_linear_7_8)"/>
</g>
<g filter="url(#filter1_d_7_8)">
<path d="M67.625 15.9205C67.5644 15.3826 67.3144 14.9659 66.875 14.6705C66.4356 14.3712 65.8826 14.2216 65.2159 14.2216C64.7386 14.2216 64.3258 14.2973 63.9773 14.4489C63.6288 14.5966 63.358 14.8011 63.1648 15.0625C62.9754 15.3201 62.8807 15.6136 62.8807 15.9432C62.8807 16.2197 62.9451 16.4583 63.0739 16.6591C63.2064 16.8598 63.3788 17.0284 63.5909 17.1648C63.8068 17.2973 64.0379 17.4091 64.2841 17.5C64.5303 17.5871 64.767 17.6591 64.9943 17.7159L66.1307 18.0114C66.5019 18.1023 66.8826 18.2254 67.2727 18.3807C67.6629 18.536 68.0246 18.7405 68.358 18.9943C68.6913 19.2481 68.9602 19.5625 69.1648 19.9375C69.3731 20.3125 69.4773 20.7614 69.4773 21.2841C69.4773 21.9432 69.3068 22.5284 68.9659 23.0398C68.6288 23.5511 68.1383 23.9545 67.4943 24.25C66.8542 24.5455 66.0795 24.6932 65.1705 24.6932C64.2992 24.6932 63.5455 24.5549 62.9091 24.2784C62.2727 24.0019 61.7746 23.6098 61.4148 23.1023C61.0549 22.5909 60.8561 21.9848 60.8182 21.2841H62.5795C62.6136 21.7045 62.75 22.0549 62.9886 22.3352C63.2311 22.6117 63.5398 22.8182 63.9148 22.9545C64.2936 23.0871 64.7083 23.1534 65.1591 23.1534C65.6553 23.1534 66.0966 23.0758 66.483 22.9205C66.8731 22.7614 67.1799 22.5417 67.4034 22.2614C67.6269 21.9773 67.7386 21.6458 67.7386 21.267C67.7386 20.9223 67.6401 20.6401 67.4432 20.4205C67.25 20.2008 66.9867 20.0189 66.6534 19.875C66.3239 19.7311 65.9508 19.6042 65.5341 19.4943L64.1591 19.1193C63.2273 18.8655 62.4886 18.4924 61.9432 18C61.4015 17.5076 61.1307 16.8561 61.1307 16.0455C61.1307 15.375 61.3125 14.7898 61.6761 14.2898C62.0398 13.7898 62.5322 13.4015 63.1534 13.125C63.7746 12.8447 64.4754 12.7045 65.2557 12.7045C66.0436 12.7045 66.7386 12.8428 67.3409 13.1193C67.947 13.3958 68.4242 13.7765 68.7727 14.2614C69.1212 14.7424 69.303 15.2955 69.3182 15.9205H67.625ZM76.9673 20.8807V15.7727H78.6719V24.5H77.0014V22.9886H76.9105C76.7097 23.4545 76.3878 23.8428 75.9446 24.1534C75.5052 24.4602 74.9579 24.6136 74.3026 24.6136C73.7419 24.6136 73.2457 24.4905 72.8139 24.2443C72.3859 23.9943 72.0488 23.625 71.8026 23.1364C71.5601 22.6477 71.4389 22.0436 71.4389 21.3239V15.7727H73.1378V21.1193C73.1378 21.714 73.3026 22.1875 73.6321 22.5398C73.9616 22.892 74.3897 23.0682 74.9162 23.0682C75.2344 23.0682 75.5507 22.9886 75.8651 22.8295C76.1832 22.6705 76.4465 22.4299 76.6548 22.108C76.8669 21.786 76.9711 21.3769 76.9673 20.8807ZM80.9545 27.7727V15.7727H82.6136V17.1875H82.7557C82.8542 17.0057 82.9962 16.7955 83.1818 16.5568C83.3674 16.3182 83.625 16.1098 83.9545 15.9318C84.2841 15.75 84.7197 15.6591 85.2614 15.6591C85.9659 15.6591 86.5947 15.8371 87.1477 16.1932C87.7007 16.5492 88.1345 17.0625 88.4489 17.733C88.767 18.4034 88.9261 19.2102 88.9261 20.1534C88.9261 21.0966 88.7689 21.9053 88.4545 22.5795C88.1401 23.25 87.7083 23.767 87.1591 24.1307C86.6098 24.4905 85.9829 24.6705 85.2784 24.6705C84.7481 24.6705 84.3144 24.5814 83.9773 24.4034C83.6439 24.2254 83.3826 24.017 83.1932 23.7784C83.0038 23.5398 82.8579 23.3276 82.7557 23.142H82.6534V27.7727H80.9545ZM82.6193 20.1364C82.6193 20.75 82.7083 21.2879 82.8864 21.75C83.0644 22.2121 83.322 22.5739 83.6591 22.8352C83.9962 23.0928 84.4091 23.2216 84.8977 23.2216C85.4053 23.2216 85.8295 23.0871 86.1704 22.8182C86.5114 22.5455 86.7689 22.1761 86.9432 21.7102C87.1212 21.2443 87.2102 20.7197 87.2102 20.1364C87.2102 19.5606 87.1231 19.0436 86.9489 18.5852C86.7784 18.1269 86.5208 17.7651 86.1761 17.5C85.8352 17.2348 85.4091 17.1023 84.8977 17.1023C84.4053 17.1023 83.9886 17.2292 83.6477 17.483C83.3106 17.7367 83.0549 18.0909 82.8807 18.5455C82.7064 19 82.6193 19.5303 82.6193 20.1364ZM90.8295 27.7727V15.7727H92.4886V17.1875H92.6307C92.7292 17.0057 92.8712 16.7955 93.0568 16.5568C93.2424 16.3182 93.5 16.1098 93.8295 15.9318C94.1591 15.75 94.5947 15.6591 95.1364 15.6591C95.8409 15.6591 96.4697 15.8371 97.0227 16.1932C97.5757 16.5492 98.0095 17.0625 98.3239 17.733C98.642 18.4034 98.8011 19.2102 98.8011 20.1534C98.8011 21.0966 98.6439 21.9053 98.3295 22.5795C98.0151 23.25 97.5833 23.767 97.0341 24.1307C96.4848 24.4905 95.8579 24.6705 95.1534 24.6705C94.6231 24.6705 94.1894 24.5814 93.8523 24.4034C93.5189 24.2254 93.2576 24.017 93.0682 23.7784C92.8788 23.5398 92.7329 23.3276 92.6307 23.142H92.5284V27.7727H90.8295ZM92.4943 20.1364C92.4943 20.75 92.5833 21.2879 92.7614 21.75C92.9394 22.2121 93.197 22.5739 93.5341 22.8352C93.8712 23.0928 94.2841 23.2216 94.7727 23.2216C95.2803 23.2216 95.7045 23.0871 96.0454 22.8182C96.3864 22.5455 96.6439 22.1761 96.8182 21.7102C96.9962 21.2443 97.0852 20.7197 97.0852 20.1364C97.0852 19.5606 96.9981 19.0436 96.8239 18.5852C96.6534 18.1269 96.3958 17.7651 96.0511 17.5C95.7102 17.2348 95.2841 17.1023 94.7727 17.1023C94.2803 17.1023 93.8636 17.2292 93.5227 17.483C93.1856 17.7367 92.9299 18.0909 92.7557 18.5455C92.5814 19 92.4943 19.5303 92.4943 20.1364ZM104.381 24.6761C103.562 24.6761 102.848 24.4886 102.239 24.1136C101.629 23.7386 101.155 23.214 100.818 22.5398C100.481 21.8655 100.312 21.0776 100.312 20.1761C100.312 19.2708 100.481 18.4792 100.818 17.8011C101.155 17.1231 101.629 16.5966 102.239 16.2216C102.848 15.8466 103.562 15.6591 104.381 15.6591C105.199 15.6591 105.913 15.8466 106.523 16.2216C107.133 16.5966 107.606 17.1231 107.943 17.8011C108.28 18.4792 108.449 19.2708 108.449 20.1761C108.449 21.0776 108.28 21.8655 107.943 22.5398C107.606 23.214 107.133 23.7386 106.523 24.1136C105.913 24.4886 105.199 24.6761 104.381 24.6761ZM104.386 23.25C104.917 23.25 105.356 23.1098 105.705 22.8295C106.053 22.5492 106.311 22.1761 106.477 21.7102C106.648 21.2443 106.733 20.7311 106.733 20.1705C106.733 19.6136 106.648 19.1023 106.477 18.6364C106.311 18.1667 106.053 17.7898 105.705 17.5057C105.356 17.2216 104.917 17.0795 104.386 17.0795C103.852 17.0795 103.409 17.2216 103.057 17.5057C102.708 17.7898 102.449 18.1667 102.278 18.6364C102.112 19.1023 102.028 19.6136 102.028 20.1705C102.028 20.7311 102.112 21.2443 102.278 21.7102C102.449 22.1761 102.708 22.5492 103.057 22.8295C103.409 23.1098 103.852 23.25 104.386 23.25ZM110.345 24.5V15.7727H111.987V17.1591H112.078C112.237 16.6894 112.518 16.3201 112.919 16.0511C113.324 15.7784 113.783 15.642 114.294 15.642C114.4 15.642 114.525 15.6458 114.669 15.6534C114.817 15.661 114.932 15.6705 115.016 15.6818V17.3068C114.947 17.2879 114.826 17.267 114.652 17.2443C114.478 17.2178 114.303 17.2045 114.129 17.2045C113.728 17.2045 113.37 17.2898 113.055 17.4602C112.745 17.6269 112.499 17.8598 112.317 18.1591C112.135 18.4545 112.044 18.7917 112.044 19.1705V24.5H110.345ZM121.075 15.7727V17.1364H116.308V15.7727H121.075ZM117.587 13.6818H119.285V21.9375C119.285 22.267 119.335 22.5151 119.433 22.6818C119.532 22.8447 119.659 22.9564 119.814 23.017C119.973 23.0739 120.145 23.1023 120.331 23.1023C120.467 23.1023 120.587 23.0928 120.689 23.0739C120.791 23.0549 120.871 23.0398 120.928 23.0284L121.234 24.4318C121.136 24.4697 120.996 24.5076 120.814 24.5455C120.632 24.5871 120.405 24.6098 120.132 24.6136C119.685 24.6212 119.268 24.5417 118.882 24.375C118.496 24.2083 118.183 23.9508 117.945 23.6023C117.706 23.2538 117.587 22.8163 117.587 22.2898V13.6818ZM127.325 24.5V12.8636H129.024V17.1875H129.126C129.225 17.0057 129.367 16.7955 129.553 16.5568C129.738 16.3182 129.996 16.1098 130.325 15.9318C130.655 15.75 131.09 15.6591 131.632 15.6591C132.337 15.6591 132.965 15.8371 133.518 16.1932C134.071 16.5492 134.505 17.0625 134.82 17.733C135.138 18.4034 135.297 19.2102 135.297 20.1534C135.297 21.0966 135.14 21.9053 134.825 22.5795C134.511 23.25 134.079 23.767 133.53 24.1307C132.981 24.4905 132.354 24.6705 131.649 24.6705C131.119 24.6705 130.685 24.5814 130.348 24.4034C130.015 24.2254 129.753 24.017 129.564 23.7784C129.375 23.5398 129.229 23.3276 129.126 23.142H128.984V24.5H127.325ZM128.99 20.1364C128.99 20.75 129.079 21.2879 129.257 21.75C129.435 22.2121 129.693 22.5739 130.03 22.8352C130.367 23.0928 130.78 23.2216 131.268 23.2216C131.776 23.2216 132.2 23.0871 132.541 22.8182C132.882 22.5455 133.14 22.1761 133.314 21.7102C133.492 21.2443 133.581 20.7197 133.581 20.1364C133.581 19.5606 133.494 19.0436 133.32 18.5852C133.149 18.1269 132.892 17.7651 132.547 17.5C132.206 17.2348 131.78 17.1023 131.268 17.1023C130.776 17.1023 130.359 17.2292 130.018 17.483C129.681 17.7367 129.426 18.0909 129.251 18.5455C129.077 19 128.99 19.5303 128.99 20.1364ZM137.982 27.7727C137.728 27.7727 137.497 27.7519 137.288 27.7102C137.08 27.6723 136.925 27.6307 136.822 27.5852L137.232 26.1932C137.542 26.2765 137.819 26.3125 138.061 26.3011C138.303 26.2898 138.517 26.1989 138.703 26.0284C138.892 25.8579 139.059 25.5795 139.203 25.1932L139.413 24.6136L136.22 15.7727H138.038L140.249 22.5455H140.339L142.55 15.7727H144.374L140.777 25.6648C140.61 26.1193 140.398 26.5038 140.141 26.8182C139.883 27.1364 139.576 27.375 139.22 27.5341C138.864 27.6932 138.451 27.7727 137.982 27.7727ZM150.205 24.5V15.7727H151.835V17.1932H151.943C152.125 16.7121 152.422 16.3371 152.835 16.0682C153.248 15.7955 153.742 15.6591 154.318 15.6591C154.901 15.6591 155.39 15.7955 155.784 16.0682C156.182 16.3409 156.475 16.7159 156.665 17.1932H156.756C156.964 16.7273 157.295 16.3561 157.75 16.0795C158.205 15.7992 158.746 15.6591 159.375 15.6591C160.167 15.6591 160.812 15.9072 161.312 16.4034C161.816 16.8996 162.068 17.6477 162.068 18.6477V24.5H160.369V18.8068C160.369 18.2159 160.208 17.7879 159.886 17.5227C159.564 17.2576 159.18 17.125 158.733 17.125C158.18 17.125 157.75 17.2955 157.443 17.6364C157.136 17.9735 156.983 18.4072 156.983 18.9375V24.5H155.29V18.6989C155.29 18.2254 155.142 17.8447 154.847 17.5568C154.551 17.2689 154.167 17.125 153.693 17.125C153.371 17.125 153.074 17.2102 152.801 17.3807C152.532 17.5473 152.314 17.7803 152.148 18.0795C151.985 18.3788 151.903 18.7254 151.903 19.1193V24.5H150.205ZM168.107 24.6761C167.247 24.6761 166.506 24.4924 165.885 24.125C165.267 23.7538 164.79 23.233 164.453 22.5625C164.12 21.8883 163.953 21.0985 163.953 20.1932C163.953 19.2992 164.12 18.5114 164.453 17.8295C164.79 17.1477 165.26 16.6155 165.862 16.233C166.468 15.8504 167.177 15.6591 167.987 15.6591C168.48 15.6591 168.957 15.7405 169.419 15.9034C169.881 16.0663 170.296 16.322 170.663 16.6705C171.031 17.0189 171.321 17.4716 171.533 18.0284C171.745 18.5814 171.851 19.2538 171.851 20.0455V20.6477H164.913V19.375H170.186C170.186 18.928 170.095 18.5322 169.913 18.1875C169.732 17.839 169.476 17.5644 169.146 17.3636C168.821 17.1629 168.438 17.0625 167.999 17.0625C167.521 17.0625 167.105 17.1799 166.749 17.4148C166.396 17.6458 166.124 17.9489 165.93 18.3239C165.741 18.6951 165.646 19.0985 165.646 19.5341V20.5284C165.646 21.1117 165.749 21.608 165.953 22.017C166.161 22.4261 166.451 22.7386 166.822 22.9545C167.194 23.1667 167.627 23.2727 168.124 23.2727C168.446 23.2727 168.739 23.2273 169.004 23.1364C169.269 23.0417 169.499 22.9015 169.692 22.7159C169.885 22.5303 170.033 22.3011 170.135 22.0284L171.743 22.3182C171.614 22.7917 171.383 23.2064 171.05 23.5625C170.72 23.9148 170.305 24.1894 169.805 24.3864C169.309 24.5795 168.743 24.6761 168.107 24.6761Z" fill="#E8E8E8"/>
<path d="M65.5057 43.5H60.9357V31.1364H65.4996C66.7593 31.1364 67.844 31.3839 68.7535 31.8789C69.6671 32.3699 70.3714 33.0782 70.8665 34.0039C71.3615 34.9255 71.609 36.0283 71.609 37.3121C71.609 38.6 71.3615 39.7068 70.8665 40.6325C70.3755 41.5581 69.6732 42.2685 68.7596 42.7635C67.846 43.2545 66.7614 43.5 65.5057 43.5ZM63.924 40.9524H65.391C66.0832 40.9524 66.6688 40.8357 67.1477 40.6023C67.6307 40.3648 67.9949 39.9805 68.2404 39.4492C68.4899 38.9139 68.6147 38.2016 68.6147 37.3121C68.6147 36.4227 68.4899 35.7144 68.2404 35.1871C67.9909 34.6559 67.6226 34.2736 67.1357 34.0401C66.6527 33.8027 66.0571 33.6839 65.3487 33.6839H63.924V40.9524ZM77.6822 43.6751C76.7082 43.6751 75.8711 43.4758 75.1708 43.0774C74.4745 42.6749 73.9373 42.1155 73.5589 41.3991C73.1847 40.6787 72.9975 39.8436 72.9975 38.8938C72.9975 37.94 73.1847 37.1049 73.5589 36.3885C73.9373 35.6681 74.4745 35.1087 75.1708 34.7102C75.8711 34.3078 76.7082 34.1065 77.6822 34.1065C78.6561 34.1065 79.4912 34.3078 80.1875 34.7102C80.8878 35.1087 81.4251 35.6681 81.7994 36.3885C82.1777 37.1049 82.3668 37.94 82.3668 38.8938C82.3668 39.8436 82.1777 40.6787 81.7994 41.3991C81.4251 42.1155 80.8878 42.6749 80.1875 43.0774C79.4912 43.4758 78.6561 43.6751 77.6822 43.6751ZM77.7003 41.4474C78.0544 41.4474 78.3543 41.3388 78.5998 41.1214C78.8453 40.9041 79.0324 40.6023 79.1612 40.2159C79.294 39.8295 79.3604 39.3828 79.3604 38.8757C79.3604 38.3606 79.294 37.9098 79.1612 37.5234C79.0324 37.1371 78.8453 36.8352 78.5998 36.6179C78.3543 36.4006 78.0544 36.2919 77.7003 36.2919C77.334 36.2919 77.0241 36.4006 76.7706 36.6179C76.5211 36.8352 76.3299 37.1371 76.1971 37.5234C76.0683 37.9098 76.0039 38.3606 76.0039 38.8757C76.0039 39.3828 76.0683 39.8295 76.1971 40.2159C76.3299 40.6023 76.5211 40.9041 76.7706 41.1214C77.0241 41.3388 77.334 41.4474 77.7003 41.4474ZM86.8311 38.2116V43.5H83.8791V34.2273H86.6862V35.9297H86.7889C86.9941 35.3622 87.3443 34.9175 87.8393 34.5955C88.3343 34.2695 88.9239 34.1065 89.6081 34.1065C90.2601 34.1065 90.8256 34.2534 91.3045 34.5472C91.7875 34.837 92.1617 35.2435 92.4274 35.7667C92.697 36.2859 92.8298 36.8936 92.8258 37.5898V43.5H89.8737V38.1694C89.8778 37.6542 89.747 37.2518 89.4813 36.962C89.2197 36.6722 88.8555 36.5273 88.3887 36.5273C88.0788 36.5273 87.8051 36.5958 87.5676 36.7326C87.3342 36.8654 87.1531 37.0566 87.0243 37.3061C86.8996 37.5556 86.8352 37.8575 86.8311 38.2116ZM97.2675 43.657C96.6759 43.657 96.1506 43.5584 95.6918 43.3611C95.2371 43.1599 94.8769 42.8581 94.6112 42.4556C94.3496 42.0491 94.2188 41.54 94.2188 40.9283C94.2188 40.4131 94.3094 39.9785 94.4905 39.6243C94.6716 39.2701 94.9211 38.9824 95.2391 38.761C95.557 38.5397 95.9233 38.3726 96.3378 38.2599C96.7523 38.1432 97.195 38.0647 97.6659 38.0245C98.1931 37.9762 98.6177 37.9259 98.9397 37.8736C99.2617 37.8172 99.4951 37.7388 99.64 37.6381C99.7889 37.5335 99.8634 37.3866 99.8634 37.1974V37.1673C99.8634 36.8574 99.7567 36.6179 99.5434 36.4489C99.3301 36.2798 99.0423 36.1953 98.6801 36.1953C98.2897 36.1953 97.9758 36.2798 97.7384 36.4489C97.5009 36.6179 97.35 36.8513 97.2856 37.1491L94.5629 37.0526C94.6434 36.4891 94.8507 35.986 95.1847 35.5433C95.5228 35.0966 95.9856 34.7464 96.5732 34.4929C97.1649 34.2353 97.8752 34.1065 98.7043 34.1065C99.2959 34.1065 99.8412 34.177 100.34 34.3178C100.839 34.4547 101.274 34.6559 101.644 34.9215C102.015 35.1831 102.3 35.5051 102.501 35.8874C102.707 36.2698 102.809 36.7064 102.809 37.1974V43.5H100.032V42.2081H99.9599C99.7949 42.522 99.5836 42.7876 99.3261 43.005C99.0725 43.2223 98.7727 43.3853 98.4266 43.494C98.0845 43.6026 97.6981 43.657 97.2675 43.657ZM98.1791 41.7251C98.497 41.7251 98.7827 41.6607 99.0363 41.532C99.2939 41.4032 99.4991 41.2261 99.6521 41.0007C99.805 40.7713 99.8815 40.5057 99.8815 40.2038V39.3224C99.797 39.3667 99.6943 39.407 99.5736 39.4432C99.4569 39.4794 99.3281 39.5136 99.1872 39.5458C99.0464 39.578 98.9015 39.6062 98.7526 39.6303C98.6037 39.6545 98.4608 39.6766 98.3239 39.6967C98.0462 39.741 97.8088 39.8094 97.6116 39.902C97.4184 39.9946 97.2695 40.1153 97.1649 40.2642C97.0642 40.4091 97.0139 40.5821 97.0139 40.7834C97.0139 41.0892 97.1226 41.3227 97.3399 41.4837C97.5613 41.6446 97.841 41.7251 98.1791 41.7251ZM109.848 34.2273V36.4006H103.999V34.2273H109.848ZM105.224 32.0057H108.176V40.5842C108.176 40.7653 108.204 40.9122 108.261 41.0249C108.321 41.1335 108.408 41.212 108.52 41.2603C108.633 41.3046 108.768 41.3267 108.925 41.3267C109.037 41.3267 109.156 41.3166 109.281 41.2965C109.41 41.2724 109.506 41.2522 109.571 41.2361L110.017 43.3672C109.877 43.4074 109.677 43.4577 109.42 43.5181C109.166 43.5785 108.862 43.6167 108.508 43.6328C107.816 43.665 107.222 43.5845 106.727 43.3913C106.236 43.1941 105.86 42.8883 105.598 42.4737C105.341 42.0592 105.216 41.538 105.224 40.9102V32.0057ZM111.355 43.5V34.2273H114.307V43.5H111.355ZM112.834 33.1467C112.419 33.1467 112.063 33.0098 111.765 32.7361C111.467 32.4584 111.318 32.1244 111.318 31.734C111.318 31.3477 111.467 31.0176 111.765 30.744C112.063 30.4663 112.419 30.3274 112.834 30.3274C113.252 30.3274 113.608 30.4663 113.902 30.744C114.2 31.0176 114.349 31.3477 114.349 31.734C114.349 32.1244 114.2 32.4584 113.902 32.7361C113.608 33.0098 113.252 33.1467 112.834 33.1467ZM120.514 43.6751C119.54 43.6751 118.703 43.4758 118.003 43.0774C117.307 42.6749 116.769 42.1155 116.391 41.3991C116.017 40.6787 115.83 39.8436 115.83 38.8938C115.83 37.94 116.017 37.1049 116.391 36.3885C116.769 35.6681 117.307 35.1087 118.003 34.7102C118.703 34.3078 119.54 34.1065 120.514 34.1065C121.488 34.1065 122.323 34.3078 123.02 34.7102C123.72 35.1087 124.257 35.6681 124.631 36.3885C125.01 37.1049 125.199 37.94 125.199 38.8938C125.199 39.8436 125.01 40.6787 124.631 41.3991C124.257 42.1155 123.72 42.6749 123.02 43.0774C122.323 43.4758 121.488 43.6751 120.514 43.6751ZM120.532 41.4474C120.886 41.4474 121.186 41.3388 121.432 41.1214C121.677 40.9041 121.864 40.6023 121.993 40.2159C122.126 39.8295 122.192 39.3828 122.192 38.8757C122.192 38.3606 122.126 37.9098 121.993 37.5234C121.864 37.1371 121.677 36.8352 121.432 36.6179C121.186 36.4006 120.886 36.2919 120.532 36.2919C120.166 36.2919 119.856 36.4006 119.603 36.6179C119.353 36.8352 119.162 37.1371 119.029 37.5234C118.9 37.9098 118.836 38.3606 118.836 38.8757C118.836 39.3828 118.9 39.8295 119.029 40.2159C119.162 40.6023 119.353 40.9041 119.603 41.1214C119.856 41.3388 120.166 41.4474 120.532 41.4474ZM129.663 38.2116V43.5H126.711V34.2273H129.518V35.9297H129.621C129.826 35.3622 130.176 34.9175 130.671 34.5955C131.166 34.2695 131.756 34.1065 132.44 34.1065C133.092 34.1065 133.658 34.2534 134.137 34.5472C134.619 34.837 134.994 35.2435 135.259 35.7667C135.529 36.2859 135.662 36.8936 135.658 37.5898V43.5H132.706V38.1694C132.71 37.6542 132.579 37.2518 132.313 36.962C132.052 36.6722 131.688 36.5273 131.221 36.5273C130.911 36.5273 130.637 36.5958 130.4 36.7326C130.166 36.8654 129.985 37.0566 129.856 37.3061C129.732 37.5556 129.667 37.8575 129.663 38.2116ZM140.16 43.5H136.948L141.12 31.1364H145.098L149.27 43.5H146.058L143.154 34.2514H143.058L140.16 43.5ZM139.731 38.6342H146.444V40.9041H139.731V38.6342ZM153.553 31.1364V43.5H150.601V31.1364H153.553ZM159.766 43.6751C158.796 43.6751 157.959 43.4839 157.255 43.1016C156.555 42.7152 156.015 42.1658 155.637 41.4535C155.263 40.7371 155.076 39.8859 155.076 38.8999C155.076 37.942 155.265 37.1049 155.643 36.3885C156.021 35.6681 156.555 35.1087 157.243 34.7102C157.931 34.3078 158.742 34.1065 159.676 34.1065C160.336 34.1065 160.939 34.2092 161.487 34.4144C162.034 34.6197 162.507 34.9235 162.906 35.326C163.304 35.7285 163.614 36.2255 163.835 36.8171C164.057 37.4047 164.167 38.0788 164.167 38.8395V39.576H156.108V37.8615H161.42C161.416 37.5476 161.342 37.2679 161.197 37.0224C161.052 36.7769 160.853 36.5857 160.599 36.4489C160.35 36.308 160.062 36.2376 159.736 36.2376C159.406 36.2376 159.11 36.312 158.849 36.4609C158.587 36.6058 158.38 36.805 158.227 37.0586C158.074 37.3081 157.993 37.5919 157.985 37.9098V39.6545C157.985 40.0328 158.06 40.3648 158.209 40.6506C158.358 40.9323 158.569 41.1516 158.843 41.3086C159.116 41.4656 159.442 41.544 159.821 41.544C160.082 41.544 160.32 41.5078 160.533 41.4354C160.746 41.3629 160.929 41.2563 161.082 41.1154C161.235 40.9745 161.35 40.8015 161.426 40.5962L164.137 40.6747C164.024 41.2824 163.777 41.8117 163.395 42.2624C163.016 42.7092 162.519 43.0573 161.903 43.3068C161.288 43.5523 160.575 43.6751 159.766 43.6751ZM165.675 43.5V34.2273H168.542V35.9176H168.639C168.808 35.3059 169.084 34.8511 169.466 34.5533C169.848 34.2514 170.293 34.1005 170.8 34.1005C170.937 34.1005 171.078 34.1106 171.223 34.1307C171.368 34.1468 171.503 34.1729 171.627 34.2092V36.7749C171.487 36.7266 171.301 36.6883 171.072 36.6602C170.847 36.632 170.645 36.6179 170.468 36.6179C170.118 36.6179 169.802 36.6964 169.52 36.8533C169.243 37.0063 169.023 37.2216 168.862 37.4993C168.705 37.773 168.627 38.0949 168.627 38.4652V43.5H165.675ZM178.496 34.2273V36.4006H172.646V34.2273H178.496ZM173.872 32.0057H176.824V40.5842C176.824 40.7653 176.852 40.9122 176.908 41.0249C176.969 41.1335 177.055 41.212 177.168 41.2603C177.28 41.3046 177.415 41.3267 177.572 41.3267C177.685 41.3267 177.804 41.3166 177.928 41.2965C178.057 41.2724 178.154 41.2522 178.218 41.2361L178.665 43.3672C178.524 43.4074 178.325 43.4577 178.067 43.5181C177.814 43.5785 177.51 43.6167 177.156 43.6328C176.463 43.665 175.87 43.5845 175.375 43.3913C174.884 43.1941 174.507 42.8883 174.246 42.4737C173.988 42.0592 173.864 41.538 173.872 40.9102V32.0057ZM187.981 37.0586L185.271 37.131C185.243 36.9379 185.166 36.7668 185.041 36.6179C184.917 36.465 184.754 36.3462 184.552 36.2617C184.355 36.1732 184.126 36.1289 183.864 36.1289C183.522 36.1289 183.23 36.1973 182.989 36.3342C182.751 36.471 182.635 36.6561 182.639 36.8896C182.635 37.0707 182.707 37.2276 182.856 37.3604C183.009 37.4932 183.281 37.5999 183.671 37.6804L185.458 38.0185C186.384 38.1955 187.072 38.4893 187.523 38.8999C187.977 39.3104 188.207 39.8537 188.211 40.5298C188.207 41.1657 188.018 41.7191 187.643 42.19C187.273 42.6609 186.766 43.0271 186.122 43.2887C185.478 43.5463 184.742 43.6751 183.913 43.6751C182.588 43.6751 181.544 43.4034 180.779 42.8601C180.019 42.3127 179.584 41.5803 179.475 40.6626L182.391 40.5902C182.456 40.9283 182.623 41.1858 182.892 41.3629C183.162 41.54 183.506 41.6285 183.925 41.6285C184.303 41.6285 184.611 41.5581 184.848 41.4173C185.086 41.2764 185.206 41.0892 185.21 40.8558C185.206 40.6465 185.114 40.4795 184.933 40.3548C184.752 40.226 184.468 40.1254 184.082 40.0529L182.464 39.745C181.534 39.576 180.842 39.2641 180.387 38.8093C179.932 38.3505 179.707 37.7669 179.711 37.0586C179.707 36.4388 179.872 35.9096 180.206 35.4709C180.54 35.0282 181.015 34.6901 181.631 34.4567C182.246 34.2232 182.973 34.1065 183.81 34.1065C185.066 34.1065 186.056 34.3701 186.78 34.8974C187.504 35.4206 187.905 36.141 187.981 37.0586Z" fill="#F58C07"/>
</g>
<rect x="1.05" y="1.05" width="198.9" height="53.9" rx="6.95" stroke="white" stroke-opacity="0.15" stroke-width="2.1"/>
<defs>
<filter id="filter0_d_7_8" x="6.39972" y="2.39972" width="51.2006" height="51.2006" filterUnits="userSpaceOnUse" color-interpolation-filters="sRGB">
<feFlood flood-opacity="0" result="BackgroundImageFix"/>
<feColorMatrix in="SourceAlpha" type="matrix" values="0 0 0 0 0 0 0 0 0 0 0 0 0 0 0 0 0 0 127 0" result="hardAlpha"/>
<feOffset/>
<feGaussianBlur stdDeviation="2.80014"/>
<feComposite in2="hardAlpha" operator="out"/>
<feColorMatrix type="matrix" values="0 0 0 0 0 0 0 0 0 0 0 0 0 0 0 0 0 0 0.25 0"/>
<feBlend mode="normal" in2="BackgroundImageFix" result="effect1_dropShadow_7_8"/>
<feBlend mode="normal" in="SourceGraphic" in2="effect1_dropShadow_7_8" result="shape"/>
</filter>
<filter id="filter1_d_7_8" x="54.4" y="3.9" width="140.2" height="48.2" filterUnits="userSpaceOnUse" color-interpolation-filters="sRGB">
<feFlood flood-opacity="0" result="BackgroundImageFix"/>
<feColorMatrix in="SourceAlpha" type="matrix" values="0 0 0 0 0 0 0 0 0 0 0 0 0 0 0 0 0 0 127 0" result="hardAlpha"/>
<feOffset/>
<feGaussianBlur stdDeviation="2.8"/>
<feComposite in2="hardAlpha" operator="out"/>
<feColorMatrix type="matrix" values="0 0 0 0 0 0 0 0 0 0 0 0 0 0 0 0 0 0 0.25 0"/>
<feBlend mode="normal" in2="BackgroundImageFix" result="effect1_dropShadow_7_8"/>
<feBlend mode="normal" in="SourceGraphic" in2="effect1_dropShadow_7_8" result="shape"/>
</filter>
<linearGradient id="paint0_linear_7_8" x1="100.5" y1="0" x2="100.5" y2="56" gradientUnits="userSpaceOnUse">
<stop stop-color="#AB7307"/>
<stop offset="1" stop-color="#210E0C"/>
</linearGradient>
<linearGradient id="paint1_linear_7_8" x1="3499.64" y1="8.00001" x2="524.162" y2="4007.8" gradientUnits="userSpaceOnUse">
<stop stop-color="#F59C07"/>
<stop offset="1" stop-color="#F57507"/>
</linearGradient>
<clipPath id="clip0_7_8">
<rect width="40" height="40" fill="white" transform="translate(12 8)"/>
</clipPath>
</defs>
</svg>
